<?xml version="1.0" encoding="UTF-8"?>
<svg version="1.1" xmlns="http://www.w3.org/2000/svg" width="1080" height="1080">
<path d="M0 0 C-0.04125 1.11375 -0.0825 2.2275 -0.125 3.375 C-0.41121859 7.04366025 -0.41121859 7.04366025 2 9 C2.66 7.68 3.32 6.36 4 5 C4.66 5 5.32 5 6 5 C6 6.98 6 8.96 6 11 C7.98 11.495 7.98 11.495 10 12 C10 11.34 10 10.68 10 10 C10.99 10.33 11.98 10.66 13 11 C10.36 13.64 7.72 16.28 5 19 C7.10333184 22.85610838 9.59820999 25.89123955 12.59765625 29.05859375 C17.25293166 35.50336221 17.14228334 44.41516714 16 52 C15.00790465 55.46108833 13.62290112 58.74171657 12.21826172 62.05224609 C9.49605163 68.66798228 9.02239235 74.83444682 9 82 C7.72689688 81.06558465 6.456612 80.12732889 5.1875 79.1875 C4.47980469 78.66542969 3.77210938 78.14335937 3.04296875 77.60546875 C1.21468607 76.16871123 -0.39896688 74.68184237 -2 73 C-2 73.66 -2 74.32 -2 75 C-2.23976563 76.34384766 -2.23976563 76.34384766 -2.484375 77.71484375 C-3.00602154 81.03836452 -3.20236188 84.20004252 -3.25 87.5625 C-3.27578125 88.65691406 -3.3015625 89.75132812 -3.328125 90.87890625 C-2.95454798 94.43233532 -2.27632003 96.25151751 0 99 C2.31192363 99.84408501 2.31192363 99.84408501 4.875 100 C9.7213709 100.74885614 11.94749538 101.99358768 15 106 C15.66666667 107.33333333 16.33333333 108.66666667 17 110 C18.2065625 111.051875 18.2065625 111.051875 19.4375 112.125 C23.00504988 116.12761694 23.68927892 119.82610099 25 125 C28.3 125 31.6 125 35 125 C37.45566929 118.86082679 37.76328619 113.71920706 36 107.4375 C32.98772761 102.26015683 28.78248799 98.90784563 23.875 95.54296875 C17.78056059 91.35304166 14.20942392 86.77760008 12.37109375 79.515625 C11.4626466 73.35730959 12.58723968 68.66110863 15 63 C15.28746094 62.30132812 15.57492187 61.60265625 15.87109375 60.8828125 C16.55820812 59.24557348 17.27567054 57.62111831 18 56 C18.70125 56.226875 19.4025 56.45375 20.125 56.6875 C23.09416607 57.27624392 23.09416607 57.27624392 25.8125 55.5625 C31.09576334 52.97266503 35.25680522 53.46817786 40.6875 55.125 C47.47910026 58.96930203 49.66620935 63.87579695 52 71 C54.86724686 70.42655063 55.8614515 70.1385485 58 68 C59.44755245 74.27272727 59.44755245 74.27272727 57.5 77.4375 C54.13677199 79.53951751 51.89857963 79.4252996 48 79 C47.01 78.34 46.02 77.68 45 77 C44.34 77.66 43.68 78.32 43 79 C39.10798594 79.43244601 36.86769698 79.57846465 33.5625 77.375 C31.60355395 74.397402 31.68214094 72.49644963 32 69 C32.66 68.67 33.32 68.34 34 68 C34.99 68.99 35.98 69.98 37 71 C38.66621425 69.8354799 38.66621425 69.8354799 40 68 C39.75546876 64.65807308 39.39456443 63.39456443 37 61 C34.33050591 60.75684344 34.33050591 60.75684344 31.375 60.875 C30.37210938 60.89304687 29.36921875 60.91109375 28.3359375 60.9296875 C27.17964844 60.96449219 27.17964844 60.96449219 26 61 C26.33 62.32 26.66 63.64 27 65 C26.05125 65.2475 25.1025 65.495 24.125 65.75 C21.03294039 66.70353647 21.03294039 66.70353647 19.625 68.625 C18.33904656 73.51162307 18.44854761 77.51978568 20.1875 82.1875 C23.48538042 87.30490065 27.54236849 90.39413311 32.5 93.8125 C38.47876028 98.07498543 42.58902775 102.65746478 44 110 C44.66673168 117.03893774 44.42101949 123.21446832 40 129 C36.8844352 131.94624063 34.74359121 132.38827841 30.5 132.3125 C29.5615625 132.30863281 28.623125 132.30476562 27.65625 132.30078125 C24.8484915 131.98284389 23.2983544 131.63536755 21 130 C19.515625 127.6171875 19.515625 127.6171875 18.25 124.875 C17.82203125 123.96492187 17.3940625 123.05484375 16.953125 122.1171875 C16.63859375 121.41851563 16.3240625 120.71984375 16 120 C13.44800521 125.21494587 11.79081784 130.12088048 12 136 C13.33501879 139.05147152 14.02373434 140.51186717 17 142 C18.53668865 142.22467831 20.07968054 142.40796805 21.625 142.5625 C22.44226563 142.64628906 23.25953125 142.73007812 24.1015625 142.81640625 C24.72804688 142.87699219 25.35453125 142.93757812 26 143 C26.024727 147.35994067 26.04287281 151.71984414 26.05493164 156.07983398 C26.05995903 157.56291413 26.06678185 159.04598933 26.07543945 160.52905273 C26.08757482 162.66130801 26.09324425 164.79349773 26.09765625 166.92578125 C26.10551147 168.85031128 26.10551147 168.85031128 26.11352539 170.8137207 C26 174 26 174 25 177 C23.15234375 178.38671875 23.15234375 178.38671875 20.9375 179.6875 C20.20402344 180.12449219 19.47054687 180.56148437 18.71484375 181.01171875 C18.14894531 181.33785156 17.58304688 181.66398438 17 182 C17.32613281 182.4846875 17.65226563 182.969375 17.98828125 183.46875 C24.25774949 193.08563344 27.24433391 202.59762976 25.375 214.1875 C23.51515893 222.05125754 18.88058901 228.44730394 12.36328125 233.19140625 C5.85401404 237.10788359 -1.96667626 237.21463889 -9.25 235.45703125 C-12.89133598 234.03659631 -15.46833883 231.93672695 -18 229 C-18.66 229.66 -19.32 230.32 -20 231 C-25.42633716 224.82520255 -27.56039965 219.55356234 -27.2890625 211.42578125 C-26.61270102 205.74982883 -24.04042351 201.04042351 -20 197 C-15.20034733 194.37377495 -11.44670217 193.33110675 -6 194 C-1.61964057 195.43313053 1.27563154 197.03417538 4.0625 200.75 C5.24282044 204.84177752 5.48202548 207.96789716 4 212 C0.83041368 215.62238437 -0.87485006 216.88557797 -5.6875 217.375 C-9 217 -9 217 -12 216 C-11.67 217.32 -11.34 218.64 -11 220 C-3.04363306 221.87129442 2.48872337 222.36492435 10 219 C10.99 218.67 11.98 218.34 13 218 C14.13545562 215.70465742 14.13545562 215.70465742 15 213 C15.556875 211.824375 15.556875 211.824375 16.125 210.625 C18.28568727 204.14293818 16.82088812 198.01434638 14 192 C9.87633462 185.46122842 4.61528657 182.27797749 -2.72265625 180.24609375 C-16.31391151 177.39891379 -27.73346713 181.60476148 -40 187 C-39.6390625 187.49628906 -39.278125 187.99257813 -38.90625 188.50390625 C-35.7596564 193.11016966 -34.04167171 196.25003026 -35 202 C-36.63138594 205.08798053 -38.07505912 207.2664262 -40.8125 209.4375 C-44.21260975 210.31181393 -46.62623021 209.90368834 -50 209 C-52.5 206.8125 -52.5 206.8125 -54 204 C-53.84286879 200.07171964 -53.19403928 198.29105892 -51 195 C-45.66666667 193.66666667 -45.66666667 193.66666667 -43 195 C-43 197.31 -43 199.62 -43 202 C-42.34 202 -41.68 202 -41 202 C-40.55096823 197.74246336 -40.55096823 197.74246336 -42.5 194.125 C-46.61634158 192.27264629 -50.86044779 192.35387579 -55.13427734 193.64453125 C-57.27417711 194.507418 -59.35446615 195.44548668 -61.4375 196.4375 C-62.15615234 196.76298828 -62.87480469 197.08847656 -63.61523438 197.42382812 C-67.04627911 198.84101861 -67.04627911 198.84101861 -70 201 C-69.42894531 201.21914063 -68.85789062 201.43828125 -68.26953125 201.6640625 C-62.02806406 204.10508147 -56.05282538 206.88692502 -50.078125 209.92578125 C-45.54402311 211.50811376 -42.43597515 210.47865838 -38 209 C-38.58409365 214.9577552 -39.4799709 218.91197589 -44.1875 222.8125 C-48.87087127 224.78992343 -52.80972331 224.78564273 -57.515625 223.09765625 C-59.71472034 222.12604337 -61.86601198 221.10651231 -64 220 C-64.05607422 220.8353125 -64.05607422 220.8353125 -64.11328125 221.6875 C-64.64807459 227.89529724 -65.41372104 234.13661972 -69.75 238.9375 C-72.91236774 240.43084032 -75.50474943 240.87735963 -79 241 C-81.94755732 239.65437601 -83.54277272 238.91445456 -85 236 C-85.375 233.125 -85.375 233.125 -85 230 C-82.51185975 227.29859059 -80.96784439 226.13504805 -77.3125 225.625 C-75 226 -75 226 -73 228 C-73.375 230.625 -73.375 230.625 -74 233 C-73.34 233 -72.68 233 -72 233 C-71.22757731 231.16299211 -71.22757731 231.16299211 -71 229 C-71.92993467 227.1488697 -71.92993467 227.1488697 -74 226 C-79.00125644 224.77520251 -83.42547834 225.15998622 -88.4609375 225.73046875 C-99.49455726 226.90172992 -107.98330415 224.81144858 -117.1875 218.5 C-119 217 -119 217 -121 214 C-118.36 214.66 -115.72 215.32 -113 216 C-113 215.34 -113 214.68 -113 214 C-85.26124762 207.04308534 -85.26124762 207.04308534 -71 207 C-79.75475991 205.56479346 -86.89178775 206.79164859 -95.36328125 209.25 C-118.73209818 215.97276661 -118.73209818 215.97276661 -128.76953125 211.8671875 C-131 210.5 -131 210.5 -134 208 C-132.55613418 211.71279784 -130.87763608 212.9486443 -127.375 214.75 C-126.55773437 215.17796875 -125.74046875 215.6059375 -124.8984375 216.046875 C-124.27195312 216.36140625 -123.64546875 216.6759375 -123 217 C-123.33 217.66 -123.66 218.32 -124 219 C-125.2375 219.04125 -126.475 219.0825 -127.75 219.125 C-130.59516649 219.38457691 -131.63537896 219.57971163 -133.53515625 221.76953125 C-134.36810622 223.18325367 -135.15752594 224.62381514 -135.89453125 226.08984375 C-137 228 -137 228 -140 230 C-144.87529976 224.35491607 -144.87529976 224.35491607 -145.8125 221.6875 C-146.85310394 219.81606484 -146.85310394 219.81606484 -148.89453125 219.53515625 C-150.92099673 219.27608098 -152.9612793 219.13153037 -155 219 C-155 218.01 -155 217.02 -155 216 C-153.6696875 215.4121875 -153.6696875 215.4121875 -152.3125 214.8125 C-145.37249765 211.01514022 -142.77382318 206.11276447 -140 199 C-139.67 199 -139.34 199 -139 199 C-138.88785156 198.00419922 -138.88785156 198.00419922 -138.7734375 196.98828125 C-138.09287354 192.41782724 -137.44883126 189.57542469 -134.5625 185.875 C-130.22040253 182.85906038 -125.03296948 183.29415672 -120 184 C-116.94554574 185.24671602 -115.60164036 186.00944212 -113.90625 188.80078125 C-112.26627795 192.780541 -112.3339564 196.78625478 -113 201 C-115.1875 204.1875 -115.1875 204.1875 -118 206 C-120.6875 206 -120.6875 206 -123 205 C-125.35119399 201.47320901 -125.21443452 199.97120515 -125.125 195.8125 C-125.10695313 194.72582031 -125.08890625 193.63914062 -125.0703125 192.51953125 C-125.04710937 191.68808594 -125.02390625 190.85664062 -125 190 C-125.33 190.99 -125.66 191.98 -126 193 C-127.0209375 193.928125 -127.0209375 193.928125 -128.0625 194.875 C-130.19229582 196.84402327 -130.19229582 196.84402327 -130.5 199.5 C-129.81253111 202.93734447 -128.87500051 203.98749964 -126 206 C-120.84962758 207.16298732 -116.70035677 207.75890506 -112 205 C-107.10067883 198.96375501 -104.94213188 192.63451693 -104 185 C-102.35 185 -100.7 185 -99 185 C-97.4452331 188.10953379 -97.71355563 190.56266761 -98 194 C-99.875 197.25 -99.875 197.25 -102 200 C-102.66 200.99 -103.32 201.98 -104 203 C-95.52636624 198.74990156 -88.16581822 194.27009095 -81 188 C-80.1440625 187.25363281 -79.288125 186.50726562 -78.40625 185.73828125 C-74.58745255 182.35082388 -70.87023498 178.91097283 -67.3125 175.25 C-64.14876903 172.0184748 -60.74800821 169.52416879 -57 167 C-60.3 166.67 -63.6 166.34 -67 166 C-66.6875 162.625 -66.6875 162.625 -66 159 C-63 157 -63 157 -60.65234375 157.4453125 C-59.75644531 157.66960937 -58.86054687 157.89390625 -57.9375 158.125 C-53.7708366 158.60833295 -52.44454335 158.33900852 -49.0546875 155.75390625 C-44.92615007 151.43908115 -41.39732105 146.86768361 -41.1875 140.6875 C-41.64419651 136.40682228 -43.28402186 132.93244991 -45 129 C-46.01560375 123.76722257 -45.32144999 119.84847846 -42.625 115.25 C-39.59447754 111.25650778 -36.39381247 108.402348 -31.796875 106.34765625 C-26.8982091 105.73874387 -23.63143584 108.26964086 -19.6640625 110.90234375 C-17.23537836 112.81466542 -15.04314523 114.68088492 -13 117 C-13 117.66 -13 118.32 -13 119 C-14.57421875 120.296875 -14.57421875 120.296875 -16.6875 121.75 C-21.31742156 125.10751404 -25.14326125 128.42978375 -27 134 C-27.61767656 140.12925207 -26.79102638 144.53424001 -24 150 C-24.71542969 150.40089844 -25.43085937 150.80179688 -26.16796875 151.21484375 C-33.16891842 155.20891723 -39.69443882 159.51099124 -46.1875 164.27734375 C-49 166 -49 166 -53 166 C-52.67 167.32 -52.34 168.64 -52 170 C-51.48953125 169.55269531 -50.9790625 169.10539063 -50.453125 168.64453125 C-40.54111534 160.40209768 -28.93913035 156 -16 156 C-17.12451727 158.9719385 -18.22293791 161.33440687 -20 164 C-18.96875 163.896875 -17.9375 163.79375 -16.875 163.6875 C-9.39485766 163.64721198 -1.1586004 166.8942664 5 171 C7.21584546 171.44703234 9.44841961 171.81463242 11.6875 172.125 C12.86699219 172.29257812 14.04648437 172.46015625 15.26171875 172.6328125 C16.16535156 172.75398437 17.06898438 172.87515625 18 173 C17.734854 165.04562007 15.49396799 158.6189438 11 152 C7.82843335 149.74789804 7.82843335 149.74789804 4 149 C-3.51244667 147.10977148 -9.94390602 145.02875664 -14.16796875 138.078125 C-15.81349228 133.9681789 -15.79516959 129.19763902 -14.2890625 125.03515625 C-14.00804687 124.44605469 -13.72703125 123.85695313 -13.4375 123.25 C-11.84035643 119.63906672 -11.8089816 118.65283633 -13 115 C-17.92903927 109.43293787 -25.2297653 106.08480559 -31.77001953 102.75268555 C-35.07793215 101.06598616 -38.11879797 99.35140921 -41 97 C-40.75 95.125 -40.75 95.125 -40 93 C-37.953125 91.8671875 -37.953125 91.8671875 -36 91 C-42.25973917 93.73312555 -47.06613251 96.50484651 -51.625 101.64453125 C-53 103 -53 103 -55 103 C-55.66 102.34 -56.32 101.68 -57 101 C-58.01320313 101.84884766 -58.01320313 101.84884766 -59.046875 102.71484375 C-59.93890625 103.44832031 -60.8309375 104.18179688 -61.75 104.9375 C-63.07257813 106.03384766 -63.07257813 106.03384766 -64.421875 107.15234375 C-68.20766681 109.86549455 -68.20766681 109.86549455 -71 110 C-73.76171875 109.0390625 -73.76171875 109.0390625 -76.6875 107.625 C-77.66074219 107.16351563 -78.63398437 106.70203125 -79.63671875 106.2265625 C-82 105 -82 105 -83 104 C-83.07205511 102.31391034 -83.08386068 100.62499341 -83.0625 98.9375 C-83.05347656 98.01839844 -83.04445313 97.09929687 -83.03515625 96.15234375 C-83.01775391 95.08693359 -83.01775391 95.08693359 -83 94 C-76.89863836 93.68012279 -73.25921917 93.69420509 -68 97 C-62.83948889 95.7051116 -58.82321424 92.06086745 -54.6875 88.875 C-53.57665039 88.03001953 -53.57665039 88.03001953 -52.44335938 87.16796875 C-50.62498391 85.78365711 -48.81075326 84.39425774 -47 83 C-47.99 83 -48.98 83 -50 83 C-50 82.01 -50 81.02 -50 80 C-50.556875 80.33 -51.11375 80.66 -51.6875 81 C-54.30284522 82.1309601 -56.1806646 82.15662974 -59 82 C-59 79 -59 79 -58 75 C-60.64 72.69 -63.28 70.38 -66 68 C-66.99 76.58 -67.98 85.16 -69 94 C-70.65 93.34 -72.3 92.68 -74 92 C-73.93941406 91.1234375 -73.87882813 90.246875 -73.81640625 89.34375 C-72.99470951 76.90452551 -72.48521187 64.45637152 -72 52 C-72.65806641 51.8138916 -73.31613281 51.6277832 -73.99414062 51.43603516 C-85.44109896 48.11658521 -94.90473861 42.94431231 -103 34 C-103.8160042 32.34511298 -104.60906668 30.67864828 -105.375 29 C-110.3426159 22.5718869 -110.3426159 22.5718869 -129 24 C-129 45.78 -129 67.56 -129 90 C-113.49 90 -97.98 90 -82 90 C-82.33 90.66 -82.66 91.32 -83 92 C-83.66 92 -84.32 92 -85 92 C-85.22424946 96.50477584 -85.20017284 100.63285124 -84 105 C-80.9640523 107.61701795 -77.81955176 108.87007815 -74 110 C-77.34781117 133.43467822 -96.35411311 156.64097039 -114.4921875 170.8046875 C-133.84889507 185.27842777 -133.84889507 185.27842777 -140.5625 184.828125 C-156.39844492 179.44796423 -171.44930908 166.66994418 -182 154 C-182.62777344 153.28328125 -183.25554687 152.5665625 -183.90234375 151.828125 C-192.48029661 141.70444203 -205 123.77233211 -205 110 C-204.36191406 109.73445313 -203.72382813 109.46890625 -203.06640625 109.1953125 C-202.24011719 108.84210938 -201.41382813 108.48890625 -200.5625 108.125 C-199.73878906 107.77695312 -198.91507812 107.42890625 -198.06640625 107.0703125 C-195.84253285 106.1755063 -195.84253285 106.1755063 -195 104 C-194.77141886 101.9625237 -194.58975722 99.91959697 -194.4375 97.875 C-194.35371094 96.77929688 -194.26992188 95.68359375 -194.18359375 94.5546875 C-194.09271484 93.29011719 -194.09271484 93.29011719 -194 92 C-194.99 91.67 -195.98 91.34 -197 91 C-197 90.67 -197 90.34 -197 90 C-181.49 90 -165.98 90 -150 90 C-150 68.22 -150 46.44 -150 24 C-168.77410219 22.59269142 -168.77410219 22.59269142 -174.1875 29.5625 C-174.65414062 30.46742188 -175.12078125 31.37234375 -175.6015625 32.3046875 C-180.77521732 42.27625685 -193.32516376 47.67103775 -203.42578125 51.1953125 C-204.27527344 51.46085937 -205.12476563 51.72640625 -206 52 C-206.10890351 65.37670177 -206.09848966 78.66119695 -205 92 C-207.475 92.99 -207.475 92.99 -210 94 C-210.99 85.42 -211.98 76.84 -213 68 C-215.64 70.31 -218.28 72.62 -221 75 C-220.67 76.32 -220.34 77.64 -220 79 C-220 79.99 -220 80.98 -220 82 C-226.875 81.125 -226.875 81.125 -228 80 C-228.54107902 77.03543257 -228.96539063 74.05968749 -229.40234375 71.078125 C-229.96743643 68.16771303 -230.80342679 65.70355452 -232 63 C-229.79195441 62.20752336 -227.58357503 61.4159987 -225.375 60.625 C-224.14523437 60.18414062 -222.91546875 59.74328125 -221.6484375 59.2890625 C-218.44306381 58.15654289 -215.22895402 57.06307102 -212 56 C-212 53.03 -212 50.06 -212 47 C-211.04480469 46.72027344 -210.08960938 46.44054687 -209.10546875 46.15234375 C-195.05124528 41.86838728 -183.35898208 35.58339585 -175.89038086 22.34960938 C-175.26655518 21.24423828 -174.64272949 20.13886719 -174 19 C-165.10758271 18.76799096 -156.21621102 18.59047191 -147.32142448 18.48187828 C-143.1907326 18.42974831 -139.06211497 18.35909534 -134.93261719 18.24560547 C-130.94481291 18.13669945 -126.95899871 18.07711223 -122.96982193 18.05122757 C-121.45052875 18.03279142 -119.93134118 17.99678303 -118.41289902 17.94269943 C-113.80628718 17.78519357 -109.48459688 17.76849009 -105 19 C-101.9740385 21.98569285 -100.63850524 25.13852915 -99 29 C-91.1470758 39.19301691 -79.08081625 43.86288481 -67 47 C-67 49.97 -67 52.94 -67 56 C-66.15953125 56.27585937 -65.3190625 56.55171875 -64.453125 56.8359375 C-59.62025803 58.46511664 -54.83763795 60.22803509 -50.046875 61.9765625 C-47.21971069 63.10613817 -47.21971069 63.10613817 -45 63 C-43.92219794 62.12610644 -42.88625573 61.20011003 -41.875 60.25 C-38.19432898 56.98001438 -34.46838009 55.03820846 -30 53 C-30.99 50.525 -30.99 50.525 -32 48 C-33.32 48 -34.64 48 -36 48 C-36.66 49.32 -37.32 50.64 -38 52 C-42.875 50.25 -42.875 50.25 -44 48 C-44.13415472 45.3276379 -44.04318541 42.67749512 -44 40 C-43.29875 40.226875 -42.5975 40.45375 -41.875 40.6875 C-38.12299725 41.09532639 -36.20568943 39.86377293 -33 38 C-33 37.67 -33 37.34 -33 37 C-36.63 37 -40.26 37 -44 37 C-46.66037736 31.67924528 -46.66037736 31.67924528 -46 28 C-43.07425517 25.43997327 -40.56767663 24.87030136 -36.8125 24.5625 C-35.554375 24.376875 -34.29625 24.19125 -33 24 C-31.6830333 22.11629529 -31.6830333 22.11629529 -31 20 C-27.69198301 17.79465534 -23.79345687 17.06483 -20 16 C-17.525 15.01 -17.525 15.01 -15 14 C-15.99 10.04 -16.98 6.08 -18 2 C-17.34 2 -16.68 2 -16 2 C-15.67 2.99 -15.34 3.98 -15 5 C-14.01 5.33 -13.02 5.66 -12 6 C-11.34 4.35 -10.68 2.7 -10 1 C-9.34 1 -8.68 1 -8 1 C-8 2.98 -8 4.96 -8 7 C-5.9837767 6.28436734 -5.9837767 6.28436734 -4 5 C-3.34786708 2.97536745 -3.34786708 2.97536745 -3 1 C-1 0 -1 0 0 0 Z M-4 10 C-3 12 -3 12 -3 12 Z M11 35 C12 37 12 37 12 37 Z M12 37 C11.67 42.61 11.34 48.22 11 54 C13.49118953 50.2632157 13.2065226 48.25548181 13.125 43.8125 C13.10695313 42.54019531 13.08890625 41.26789063 13.0703125 39.95703125 C13.04710937 38.98121094 13.02390625 38.00539063 13 37 C12.67 37 12.34 37 12 37 Z M-1 46 C-1.15855469 46.54527344 -1.31710937 47.09054687 -1.48046875 47.65234375 C-3.78285024 55.09374248 -6.76903981 62.9750321 -13 68 C-14.32393943 68.68513256 -15.65621959 69.35465015 -17 70 C-16.39671875 70.13277344 -15.7934375 70.26554687 -15.171875 70.40234375 C-13.97304688 70.66724609 -13.97304688 70.66724609 -12.75 70.9375 C-11.56664062 71.19853516 -11.56664062 71.19853516 -10.359375 71.46484375 C-8.23121297 71.947556 -6.11467158 72.46163178 -4 73 C-0.72904898 63.74259145 0.14303623 55.82182123 0 46 C-0.33 46 -0.66 46 -1 46 Z M-26 49 C-26.33 49.66 -26.66 50.32 -27 51 C-26.01 50.67 -25.02 50.34 -24 50 C-24.66 49.67 -25.32 49.34 -26 49 Z M-8 53 C-7 55 -7 55 -7 55 Z M4 54 C5 58 5 58 5 58 Z M10 54 C11 57 11 57 11 57 Z M-9 56 C-8 58 -8 58 -8 58 Z M9 57 C10 59 10 59 10 59 Z M3 59 C4 62 4 62 4 62 Z M8 60 C9 62 9 62 9 62 Z M2 62 C3 65 3 65 3 65 Z M7 63 C8 65 8 65 8 65 Z M1 65 C2 67 2 67 2 67 Z M43 65 C43 66.65 43 68.3 43 70 C43.33 70 43.66 70 44 70 C44 68.35 44 66.7 44 65 C43.67 65 43.34 65 43 65 Z M-49 66 C-48 68 -48 68 -48 68 Z M0 67 C1 69 1 69 1 69 Z M-50 68 C-50.33 70.31 -50.66 72.62 -51 75 C-49.87483915 73.16715557 -49.87483915 73.16715557 -49 71 C-49.33 70.01 -49.66 69.02 -50 68 Z M-37 69 C-36 71 -36 71 -36 71 Z M-1 69 C0 71 0 71 0 71 Z M-21 70 C-17 71 -17 71 -17 71 Z M-38 71 C-38.33 73.64 -38.66 76.28 -39 79 C-38.01 78.67 -37.02 78.34 -36 78 C-36.33 75.69 -36.66 73.38 -37 71 C-37.33 71 -37.66 71 -38 71 Z M-28 72 C-28.33 72.66 -28.66 73.32 -29 74 C-27.68 73.34 -26.36 72.68 -25 72 C-25.99 72 -26.98 72 -28 72 Z M48 75 C52 76 52 76 52 76 Z M-35 76 C-35.33 76.66 -35.66 77.32 -36 78 C-35.01 77.67 -34.02 77.34 -33 77 C-33.66 76.67 -34.32 76.34 -35 76 Z M-8 76 C-9.29534145 80.85753045 -9.49915868 86.0084132 -9 91 C-8.01 92.485 -8.01 92.485 -7 94 C-6.93941406 93.11957031 -6.87882813 92.23914063 -6.81640625 91.33203125 C-6.73261719 90.17058594 -6.64882813 89.00914062 -6.5625 87.8125 C-6.48128906 86.66394531 -6.40007812 85.51539063 -6.31640625 84.33203125 C-6.04596188 81.48401829 -5.62478253 78.78789518 -5 76 C-5.99 76 -6.98 76 -8 76 Z M-45 80 C-45.33 80.66 -45.66 81.32 -46 82 C-44.68 81.34 -43.36 80.68 -42 80 C-42.99 80 -43.98 80 -45 80 Z M-24 88 C-23 92 -23 92 -23 92 Z M-31 91 C-29.02 91.99 -29.02 91.99 -27 93 C-27.33 92.34 -27.66 91.68 -28 91 C-28.99 91 -29.98 91 -31 91 Z M-25 92 C-25.33 92.99 -25.66 93.98 -26 95 C-25.01 95.495 -25.01 95.495 -24 96 C-24.33 94.68 -24.66 93.36 -25 92 Z M10 106 C10.03480469 106.75023437 10.06960938 107.50046875 10.10546875 108.2734375 C10.27250075 114.5888379 9.72643108 119.57813828 7.66796875 125.53125 C6.55053957 129.6611637 6.75633535 133.75843022 7 138 C7.33 138 7.66 138 8 138 C8.10957031 137.2265625 8.21914063 136.453125 8.33203125 135.65625 C9.78497585 126.11170334 9.78497585 126.11170334 11.625 121.8125 C13.31769996 117.68438478 13.88620144 113.40494244 13 109 C11.56391036 107.24477214 11.56391036 107.24477214 10 106 Z M-199 111 C-197.63770545 118.04891457 -197.63770545 118.04891457 -195.1171875 124.2109375 C-194.75882812 124.892771 -194.40046875 125.57460449 -194.03125 126.27709961 C-193.45890625 127.3155603 -193.45890625 127.3155603 -192.875 128.375 C-192.47539062 129.11177979 -192.07578125 129.84855957 -191.6640625 130.60766602 C-182.49241911 147.19317542 -168.83570925 163.74761668 -152 173 C-151.34 173 -150.68 173 -150 173 C-150 152.54 -150 132.08 -150 111 C-166.17 111 -182.34 111 -199 111 Z M-129 111 C-129 131.46 -129 151.92 -129 173 C-122.95034087 170.58013635 -118.93042364 167.17892032 -114 163 C-113.09507812 162.24332031 -112.19015625 161.48664063 -111.2578125 160.70703125 C-97.03057522 148.35392013 -86.00028048 131.91429893 -80 114 C-80 113.01 -80 112.02 -80 111 C-96.17 111 -112.34 111 -129 111 Z M-138 202 C-137 204 -137 204 -137 204 Z M-137 204 C-136 206 -136 206 -136 206 Z M-107 218 C-107 218.33 -107 218.66 -107 219 C-105.35 219 -103.7 219 -102 219 C-102 218.67 -102 218.34 -102 218 C-103.65 218 -105.3 218 -107 218 Z M-102 219 C-102 219.33 -102 219.66 -102 220 C-99.03 220 -96.06 220 -93 220 C-93 219.67 -93 219.34 -93 219 C-95.97 219 -98.94 219 -102 219 Z M-20 224 C-19 226 -19 226 -19 226 Z " fill="#FFFFFF" transform="translate(679,402)"/>
<path d="M0 0 C2 1.375 2 1.375 4 3 C4 3.66 4 4.32 4 5 C5.32 5.66 6.64 6.32 8 7 C8 5.02 8 3.04 8 1 C8.99 1.33 9.98 1.66 11 2 C11.6875 4.0625 11.6875 4.0625 12 6 C13.32 5.67 14.64 5.34 16 5 C16 4.01 16 3.02 16 2 C16.99 2.495 16.99 2.495 18 3 C17.01 6.63 16.02 10.26 15 14 C19.69373957 15.99205905 19.69373957 15.99205905 23.5 16.9375 C26.78485458 17.934688 29.20750384 19.02882624 32 21 C32.495 21.99 32.495 21.99 33 23 C35.50944662 23.83947153 35.50944662 23.83947153 38.4375 24.5 C43.78216123 25.78216123 43.78216123 25.78216123 46 28 C45.53846154 34.46153846 45.53846154 34.46153846 43 37 C40.6171875 37.1953125 40.6171875 37.1953125 37.875 37.125 C36.96492188 37.10695313 36.05484375 37.08890625 35.1171875 37.0703125 C34.41851562 37.04710937 33.71984375 37.02390625 33 37 C36.02655573 39.39548666 38.10782795 40.59029768 42 41 C42.66 40.67 43.32 40.34 44 40 C44.36521739 47.30434783 44.36521739 47.30434783 42.6875 50.5 C41 52 41 52 38 52 C37.01 50.02 37.01 50.02 36 48 C34.35 48.33 32.7 48.66 31 49 C30.67 50.32 30.34 51.64 30 53 C30.71285156 53.3403125 31.42570312 53.680625 32.16015625 54.03125 C39.66345717 57.82834441 47.06967829 62.67488087 50 71 C49.73709742 73.1703447 49.44167774 75.33684742 49.125 77.5 C49.02607337 81.26712626 49.07647535 83.84292988 51.48095703 86.85546875 C53.4603695 88.73354263 55.49285613 90.37907177 57.6875 92 C58.40760254 92.53431641 59.12770508 93.06863281 59.86962891 93.61914062 C61.8864003 94.97805931 63.73247018 96.12112148 66 97 C68.89097716 96.55640385 68.89097716 96.55640385 71 95 C73.3796612 93.8101694 74.91485735 93.86650034 77.5625 93.875 C78.77099609 93.87113281 78.77099609 93.87113281 80.00390625 93.8671875 C82 94 82 94 83 95 C83.36090226 102.45864662 83.36090226 102.45864662 81 106 C78.7578125 107.203125 78.7578125 107.203125 76.125 108.25 C75.26132812 108.60578125 74.39765625 108.9615625 73.5078125 109.328125 C70.69552412 110.08157298 69.65326512 110.14080076 67 109 C65.20143802 107.71103058 63.45355136 106.34965442 61.75 104.9375 C60.85796875 104.20402344 59.9659375 103.47054687 59.046875 102.71484375 C58.03367187 101.86599609 58.03367187 101.86599609 57 101 C55.02 101.99 55.02 101.99 53 103 C52.61070312 102.55269531 52.22140625 102.10539062 51.8203125 101.64453125 C47.1449916 96.59216834 42.2800664 93.74200082 36 91 C37.44197868 92.44197868 39.17691571 93.11786244 41 94 C37.65940665 102.0002928 27.3027085 105.52146202 20.015625 109.19140625 C16.77698361 111.13375206 14.44837934 113.12917302 12 116 C12.07105359 119.33951877 12.9307882 121.80864973 14.0625 124.9375 C15.52278219 129.70775515 15.56929341 133.41862942 13.875 138.125 C9.67894328 144.55895363 5.08424857 146.60044004 -2.0625 148.3125 C-8.6584519 150.07283243 -8.6584519 150.07283243 -13.3125 154.8125 C-14.27704293 156.86975916 -14.27704293 156.86975916 -15 159 C-15.309375 159.68707031 -15.61875 160.37414062 -15.9375 161.08203125 C-17.71376556 165.22929415 -18.12251042 168.44777064 -18 173 C-10.40545307 172.20245354 -4.36820473 170.96800116 2.30078125 167.2421875 C7.56098599 164.82142758 13.32795095 164.0052767 19 163 C18.505 162.21625 18.01 161.4325 17.5 160.625 C16 158 16 158 16 156 C29.17854261 156.59496806 42.4542575 160.4542575 52 170 C52.33 168.68 52.66 167.36 53 166 C52.12085938 165.91234375 51.24171875 165.8246875 50.3359375 165.734375 C46.560071 164.9031538 44.65577773 163.61418439 41.625 161.25 C35.9938422 156.97491693 30.36029743 153.103266 24 150 C24.495 148.845 24.99 147.69 25.5 146.5 C27.34808875 141.45329611 28.22642408 137.08679683 26.19140625 131.96484375 C23.00755775 126.24713657 18.2988749 122.69420472 13 119 C15.09543328 114.07519995 18.6517647 111.8855748 23 109 C23.57105469 108.58363281 24.14210938 108.16726563 24.73046875 107.73828125 C26.375 106.75 26.375 106.75 30 106 C36.31991042 108.38098951 40.93717594 112.00751815 44 118 C45.60686376 122.82059129 45.64541212 126.60160708 43.5 131.25 C41.27402955 136.17345188 40.72363718 140.7229946 42 146 C44.67143479 150.92017421 47.50657661 154.63440798 52 158 C55.1886113 158.4190028 57.5095921 158.0795938 60.63671875 157.3984375 C63 157 63 157 65.6875 158.625 C67 161 67 161 67 166 C63.7 166.33 60.4 166.66 57 167 C58.23363281 168.01707031 58.23363281 168.01707031 59.4921875 169.0546875 C64.87452527 173.53064575 70.10258546 177.98543615 74.9375 183.0625 C83.53866369 191.83121883 93.5366817 198.55503984 105 203 C104.57847656 202.51789063 104.15695312 202.03578125 103.72265625 201.5390625 C103.17480469 200.90742187 102.62695312 200.27578125 102.0625 199.625 C101.51722656 198.99851562 100.97195313 198.37203125 100.41015625 197.7265625 C97.54988443 194.22451223 97.84140351 191.44070186 98 187 C98.33 186.34 98.66 185.68 99 185 C100.65 185 102.3 185 104 185 C104.17015625 185.79664063 104.3403125 186.59328125 104.515625 187.4140625 C105.89660628 193.45218278 107.13444005 198.13687619 111 203 C111.66 203.99 112.32 204.98 113 206 C118.5489089 207.48702774 123.7282087 207.35843295 129 205 C130.33210538 199.92497686 130.33210538 199.92497686 128.953125 195.1328125 C127.4314894 193.29537234 127.4314894 193.29537234 125 191 C125 193.31400101 125.10337454 195.62814908 125.25 197.9375 C125.24428025 201.03760353 125.08940737 201.86423325 123.3125 204.5625 C121 206 121 206 118.4375 206 C115.41396773 204.75957651 114.52186514 203.89154376 113 201 C111.5199654 195.39701187 112.10644396 192.01549713 115 187 C118.14863451 183.94976032 121.20822525 183.72380151 125.4375 183.5 C129.23118442 183.59727396 131.63669125 183.91751163 134.625 186.3125 C138.12837851 190.27684937 138.35166821 193.57350551 138.27734375 198.65234375 C137.80537601 202.64745095 136.41553115 204.75810293 134 208 C126.62855871 213.71662794 118.9842904 214.0766225 110 213 C105.03591602 211.97438433 100.16376934 210.63704738 95.29785156 209.22241211 C83.76446585 205.87377869 83.76446585 205.87377869 72 207 C72.69738281 207.00257813 73.39476562 207.00515625 74.11328125 207.0078125 C87.37125267 207.49345248 100.14159412 210.95165903 113 214 C113 214.66 113 215.32 113 216 C115.64 215.34 118.28 214.68 121 214 C118.12331787 218.05632877 115.53454151 220.10702929 111.0625 222.25 C110.04285156 222.75015625 109.02320313 223.2503125 107.97265625 223.765625 C99.08288744 227.45704017 89.56798741 225.95679874 80.234375 225.0234375 C76.8864492 224.99917717 74.91687862 225.3866349 72 227 C71.00922702 229.45286596 71.00922702 229.45286596 71 232 C71.33 232.66 71.66 233.32 72 234 C72.99 234.33 73.98 234.66 75 235 C75 234.34 75 233.68 75 233 C74.34 233 73.68 233 73 233 C72.875 230.625 72.875 230.625 73 228 C73.66 227.34 74.32 226.68 75 226 C78.69968311 226.13453393 81.12262434 226.25971428 84 228.6875 C85.40757663 231.94252096 85.11573874 233.65278378 84 237 C81.875 239.4375 81.875 239.4375 79 241 C75.10967485 241 72.75927249 240.45625479 69.42578125 238.453125 C66.17269148 235.16336594 65.59310524 232.1878577 64.6875 227.75 C64.51927734 227.00492188 64.35105469 226.25984375 64.17773438 225.4921875 C63.76784592 223.66525611 63.38153286 221.83306289 63 220 C62.5153125 220.28875 62.030625 220.5775 61.53125 220.875 C56.37741993 223.72942896 52.88994777 224.75999326 47 224 C43.08669679 222.15410226 40.90599222 220.36136883 39.0625 216.5 C37.68972142 211.97790586 37.68972142 211.97790586 39 209 C39.515625 209.350625 40.03125 209.70125 40.5625 210.0625 C44.497923 211.57612423 48.13792003 210.76212095 52.00366211 209.17993164 C54.09133455 208.16396271 56.14212121 207.09855086 58.1875 206 C59.57491906 205.26721726 60.96418845 204.53792493 62.35546875 203.8125 C62.96028076 203.48894531 63.56509277 203.16539062 64.18823242 202.83203125 C66.10206206 201.95312929 67.94626363 201.44814966 70 201 C67.56343315 199.85214624 65.12580719 198.70664598 62.6875 197.5625 C61.99720703 197.23701172 61.30691406 196.91152344 60.59570312 196.57617188 C53.93579363 193.45534472 48.2852474 191.66872083 41 194 C41 196.31 41 198.62 41 201 C41.66 201.33 42.32 201.66 43 202 C42.773125 201.236875 42.54625 200.47375 42.3125 199.6875 C42 197 42 197 43.0625 195.125 C45 194 45 194 48 193.875 C51 195 51 195 53 198.25 C54 202 54 202 53.5 204.75 C51.58649648 207.62025528 50.21379656 208.71448138 47 210 C42.41687812 210.08184146 40.57070167 209.48570354 37.0625 206.5 C34.68523787 203.20658369 34.28850442 200.26357968 34.4921875 196.2578125 C35.36536305 192.37553967 37.44452265 190.00268589 40 187 C37.4392555 186.01602415 34.87658508 185.03770033 32.3125 184.0625 C31.59126953 183.78470703 30.87003906 183.50691406 30.12695312 183.22070312 C20.16257618 179.44424976 8.65372157 177.8370092 -1.5625 181.6875 C-8.64093249 185.07436588 -12.81443569 189.19960427 -16.08203125 196.31640625 C-18.09804888 202.21004078 -17.87656218 207.64850619 -15.4375 213.375 C-12.5759814 218.38012971 -8.68114778 220.14690752 -3.25 221.875 C1.63619702 222.06293065 6.23790332 221.02529128 11 220 C11.33 218.68 11.66 217.36 12 216 C11.01 216.33 10.02 216.66 9 217 C1.85519333 217.6914329 1.85519333 217.6914329 -1.9375 214.625 C-4.57696235 211.26568428 -5.19809402 209.86665095 -4.875 205.6875 C-4.42804313 202.12330545 -4.02526033 201.03297877 -1.75 198.0625 C3.13711661 194.39716254 6.86460145 193.37606116 13 194 C15.79383605 195.12733735 18.39774141 196.48595864 21 198 C18.03066028 194.89453009 15.47088315 193.06286004 11.00390625 192.94921875 C9.95009766 192.97435547 9.95009766 192.97435547 8.875 193 C5 193 5 193 2 191 C2.57344937 188.13275314 2.8614515 187.1385485 5 185 C11.17058664 184.37248271 15.09580327 185.16037281 20 189 C24.77014702 193.55814049 26.05941174 197.68261617 27 204 C26.34 204 25.68 204 25 204 C25.495 204.9590625 25.495 204.9590625 26 205.9375 C28.05848175 212.24160036 27.47314804 218.12763626 24.93359375 224.203125 C23.60636494 226.75762396 21.92705312 228.87359656 20 231 C19.34 230.67 18.68 230.34 18 230 C17.46375 230.433125 16.9275 230.86625 16.375 231.3125 C9.09658109 236.48400817 2.73746659 237.0007671 -6 236 C-13.50100338 233.83393485 -18.14944171 229.69385134 -22 223 C-26.64406586 214.13239393 -27.04908385 205.9839547 -24.25 196.5 C-22.5801748 191.37721485 -20.5904482 186.71831637 -18 182 C-18.74056641 181.49339844 -18.74056641 181.49339844 -19.49609375 180.9765625 C-20.45708984 180.30753906 -20.45708984 180.30753906 -21.4375 179.625 C-22.39462891 178.96371094 -22.39462891 178.96371094 -23.37109375 178.2890625 C-25 177 -25 177 -26 175 C-26.08639869 172.59161322 -26.11567764 170.21266119 -26.09765625 167.8046875 C-26.0962413 167.09724396 -26.09482635 166.38980042 -26.09336853 165.66091919 C-26.087766 163.39890331 -26.07521318 161.13698602 -26.0625 158.875 C-26.05748532 157.34244935 -26.05292236 155.80989714 -26.04882812 154.27734375 C-26.03779577 150.51819112 -26.02052952 146.75911228 -26 143 C-25.06897461 142.92108521 -25.06897461 142.92108521 -24.11914062 142.84057617 C-23.30638672 142.76299072 -22.49363281 142.68540527 -21.65625 142.60546875 C-20.44678711 142.49561646 -20.44678711 142.49561646 -19.21289062 142.38354492 C-16.81492908 142.123568 -16.81492908 142.123568 -14.5 140.3125 C-12.53896262 137.28923404 -12.06735632 135.63724107 -12 132 C-12.94711382 127.86829542 -14.10030497 123.79939006 -16 120 C-16.34611328 120.79664063 -16.34611328 120.79664063 -16.69921875 121.609375 C-18.79370003 126.14603801 -20.54291689 129.40867261 -25 132 C-29.20831572 133.16897659 -31.49471195 133.15415568 -35.6875 131.875 C-40.1463395 129.35112858 -42.38200393 126.8539882 -44 122 C-44.84921063 113.35018316 -44.38424275 106.07464455 -39 99 C-36.19199042 96.36815832 -33.14750714 94.20482613 -30 92 C-24.75549772 87.95527987 -20.72137096 84.65596772 -19 78 C-18.91463283 74.07310996 -18.85078144 70.4276208 -21.38671875 67.27734375 C-23.49389028 65.6089537 -25.37005469 65.35539802 -28 65 C-27.34 63.68 -26.68 62.36 -26 61 C-32.60727363 60.40650535 -32.60727363 60.40650535 -38.625 62.625 C-40.34529892 65.59642541 -40.30719041 67.62090549 -40 71 C-36.06924356 70.42547254 -36.06924356 70.42547254 -33 68 C-32 69 -32 69 -31.6875 71.8125 C-32 75 -32 75 -33.5625 77.375 C-36.87969422 79.58646281 -39.08945759 79.42660463 -43 79 C-43.99 78.34 -44.98 77.68 -46 77 C-46.99 77.99 -46.99 77.99 -48 79 C-51.89201406 79.43244601 -54.13230302 79.57846465 -57.4375 77.375 C-59.39644605 74.397402 -59.31785906 72.49644963 -59 69 C-58.01 68.505 -58.01 68.505 -57 68 C-56.01 68.99 -55.02 69.98 -54 71 C-51.65937273 68.87695216 -50.42085132 67.01971497 -49.1875 64.125 C-46.92071685 59.40904886 -44.03651938 56.31582506 -39.125 54.1875 C-29.89815914 53.37336698 -29.89815914 53.37336698 -25.25 55.5625 C-22.21290696 57.24099325 -22.21290696 57.24099325 -19.5625 56.6875 C-18.7890625 56.3471875 -18.7890625 56.3471875 -18 56 C-16.94108146 58.31953584 -15.94942287 60.63491982 -15 63 C-14.690625 63.76054687 -14.38125 64.52109375 -14.0625 65.3046875 C-11.36380966 72.84656318 -11.78183909 79.104202 -15.09375 86.4140625 C-18.47855012 92.140672 -23.00078847 95.43786845 -28.43359375 99.1484375 C-32.53998473 102.11103921 -35.37384831 105.12154494 -37 110 C-37.11792999 111.64279217 -37.17511674 113.29052694 -37.1875 114.9375 C-37.20876953 116.21947266 -37.20876953 116.21947266 -37.23046875 117.52734375 C-36.98357294 120.17624285 -36.42413681 121.76635385 -35 124 C-32.13879744 125.43060128 -30.15989415 125.38692581 -27 125 C-24.80838855 122.32136378 -23.83917295 119.59443614 -22.5625 116.375 C-20.94237587 112.87553189 -19.99565596 112.15312772 -17 110 C-16.505 109.01 -16.01 108.02 -15.5 107 C-13.89796054 103.79592108 -12.98311022 102.85283143 -10 101 C-7.17338721 100.16173517 -4.34362824 99.55581353 -1.4609375 98.94140625 C1.07318532 98.21909598 1.07318532 98.21909598 2.32421875 96.265625 C4.31082445 89.60532842 3.22896817 81.75932491 2 75 C3.26831693 74.18357746 4.53975931 73.37200895 5.8125 72.5625 C6.52019531 72.11003906 7.22789062 71.65757812 7.95703125 71.19140625 C10 70 10 70 13 69 C12.31164062 68.29037109 12.31164062 68.29037109 11.609375 67.56640625 C5.8560116 61.36582763 2.4923773 55.35438665 1 47 C0.80061953 53.54632544 0.76700636 59.55668786 2.66015625 65.8671875 C3.14352048 68.90071472 2.85384539 71.04408681 2 74 C-0.25 76.3359375 -0.25 76.3359375 -3 78.375 C-3.9075 79.06335938 -4.815 79.75171875 -5.75 80.4609375 C-8 82 -8 82 -9 82 C-9.00386719 80.88818359 -9.00386719 80.88818359 -9.0078125 79.75390625 C-9.26808377 72.6658521 -10.47873145 67.17672551 -13.0625 60.625 C-16.61286419 51.41711955 -17.8759854 42.18956261 -14.9375 32.5 C-13.26343539 28.7879437 -10.53688556 26.21947009 -7.5234375 23.54296875 C-5.74398379 21.96779746 -5.74398379 21.96779746 -5 19 C-7.64 16.36 -10.28 13.72 -13 11 C-12.01 10.67 -11.02 10.34 -10 10 C-10 10.66 -10 11.32 -10 12 C-8.68 11.67 -7.36 11.34 -6 11 C-6 9.02 -6 7.04 -6 5 C-5.34 5 -4.68 5 -4 5 C-3.505 6.485 -3.505 6.485 -3 8 C-2.01 8.33 -1.02 8.66 0 9 C0 6.03 0 3.06 0 0 Z M3 10 C4 12 4 12 4 12 Z M-12 34 C-11 36 -11 36 -11 36 Z M-13 37 C-13.91297308 41.97063121 -13.91297308 46.02936879 -13 51 C-12.67 51 -12.34 51 -12 51 C-12 46.38 -12 41.76 -12 37 C-12.33 37 -12.66 37 -13 37 Z M-6 49 C-5 52 -5 52 -5 52 Z M-12 51 C-11 54 -11 54 -11 54 Z M7 53 C8 55 8 55 8 55 Z M-11 55 C-10 57 -10 57 -10 57 Z M-5 55 C-4 59 -4 59 -4 59 Z M8 56 C9 58 9 58 9 58 Z M-10 58 C-9 60 -9 60 -9 60 Z M-4 60 C-3 63 -3 63 -3 63 Z M-3 63 C-2 65 -2 65 -2 65 Z M35 63 C36.32 64.32 37.64 65.64 39 67 C38.34 65.68 37.68 64.36 37 63 C36.34 63 35.68 63 35 63 Z M-44 65 C-44 66.65 -44 68.3 -44 70 C-43.67 70 -43.34 70 -43 70 C-43 68.35 -43 66.7 -43 65 C-43.33 65 -43.66 65 -44 65 Z M-2 65 C-1 68 -1 68 -1 68 Z M-1 68 C-0.67 68.99 -0.34 69.98 0 71 C0 70.01 0 69.02 0 68 C-0.33 68 -0.66 68 -1 68 Z M36 69 C37 71 37 71 37 71 Z M17 70 C21 71 21 71 21 71 Z M22 71 C22.66 71.66 23.32 72.32 24 73 C24.99 72.67 25.98 72.34 27 72 C25.35 71.67 23.7 71.34 22 71 Z M37 71 C36.67 73.64 36.34 76.28 36 79 C36.99 79 37.98 79 39 79 C38.67 76.36 38.34 73.72 38 71 C37.67 71 37.34 71 37 71 Z M5 76 C5.66 81.94 6.32 87.88 7 94 C10.01478382 87.97043235 9.29241697 82.46208486 8 76 C7.01 76 6.02 76 5 76 Z M46 82 C46.33 82.66 46.66 83.32 47 84 C47.66 83.67 48.32 83.34 49 83 C48.01 82.67 47.02 82.34 46 82 Z M22 87 C23 89 23 89 23 89 Z M23 89 C24 93 24 93 24 93 Z M28 91 C27.67 91.66 27.34 92.32 27 93 C28.32 92.34 29.64 91.68 31 91 C30.01 91 29.02 91 28 91 Z M24 93 C24.33 93.99 24.66 94.98 25 96 C25 95.01 25 94.02 25 93 C24.67 93 24.34 93 24 93 Z M6 94 C7 96 7 96 7 96 Z M-11 106 C-13.39818933 108.39818933 -13.32114553 109.02199171 -13.375 112.3125 C-13.28625422 117.87121293 -11.76860279 122.69496249 -9.97265625 127.921875 C-9.01682339 130.94675971 -8.44607577 133.86338301 -8 137 C-7.67 137 -7.34 137 -7 137 C-6.75563958 131.94988474 -6.84568133 127.97958741 -8.5 123.1875 C-10.4223856 117.45644434 -10.27766663 111.98525854 -10 106 C-10.33 106 -10.66 106 -11 106 Z M-9 137 C-8 139 -8 139 -8 139 Z M23 200 C24 202 24 202 24 202 Z M93 219 C93 219.33 93 219.66 93 220 C100.05651252 220.14975239 100.05651252 220.14975239 107 219 C107 218.67 107 218.34 107 218 C102.21974517 217.88049363 97.72383963 218.34843591 93 219 Z " fill="#FFFFFF" transform="translate(400,402)"/>
<path d="M0 0 C4.73156779 2.01216146 5.86171183 4.40664022 8 9 C7.84552357 11.62609936 7.01440432 12.974407 5.72265625 15.26953125 C4.65790522 18.0752913 4.65790522 18.0752913 6.37890625 20.75390625 C7.09949219 21.68074219 7.82007813 22.60757812 8.5625 23.5625 C9.26503906 24.49191406 9.96757813 25.42132813 10.69140625 26.37890625 C16.58895082 33.07476481 23.2275797 36.39398617 32.046875 37.0703125 C40.39558935 36.87153359 48.66707858 35.00386507 56 31 C56 29.35 56 27.7 56 26 C61.2734375 22.77734375 61.2734375 22.77734375 63 22 C63.66 22.33 64.32 22.66 65 23 C64.28457031 24.093125 63.56914063 25.18625 62.83203125 26.3125 C54.51283066 39.17624016 47.14447659 52.4536689 40 66 C37.79163602 65.8546315 35.58331099 65.7086713 33.375 65.5625 C32.69276367 65.51810791 32.01052734 65.47371582 31.30761719 65.42797852 C28.05367393 65.21398248 24.80440779 64.98358977 21.5546875 64.7109375 C6.74833329 63.48582545 -7.75633965 63.75487756 -22.52734375 65.28833008 C-27.3870293 65.79215457 -32.11374636 66.10680336 -37 66 C-37.3309668 65.37246826 -37.66193359 64.74493652 -38.00292969 64.09838867 C-45.45785783 50.0158601 -53.27340034 36.33361533 -62 23 C-61.34 22.67 -60.68 22.34 -60 22 C-57 23 -57 23 -54 25 C-53.75894531 26.13566406 -53.51789063 27.27132813 -53.26953125 28.44140625 C-52.34516199 32.27688261 -52.34516199 32.27688261 -48.76171875 33.77734375 C-47.41449942 34.20032546 -46.05495216 34.58538067 -44.6875 34.9375 C-43.97198975 35.13786865 -43.25647949 35.3382373 -42.51928711 35.54467773 C-33.35381027 37.93093766 -24.44757432 38.6496301 -15.8515625 34.1171875 C-9.87019802 30.50817855 -4.94133251 25.42735623 -2 19 C-2.72188844 16.28982454 -3.77016982 14.34956207 -5.3046875 12.015625 C-6 10 -6 10 -4.8828125 7.421875 C-4.30273438 6.54015625 -3.72265625 5.6584375 -3.125 4.75 C-2.26261719 3.41195313 -2.26261719 3.41195313 -1.3828125 2.046875 C-0.92648437 1.37140625 -0.47015625 0.6959375 0 0 Z M1 35 C-2.46227913 42.89399642 -1.98193492 47.84937789 1 56 C3.57945901 52.13081148 4.6730635 48.64249833 5 44 C4.3369045 40.83717759 3.29905839 37.95431021 2 35 C1.67 35 1.34 35 1 35 Z M-21 43 C-20.81171228 45.44480079 -20.81171228 45.44480079 -20 48 C-18.03241727 49.36020151 -18.03241727 49.36020151 -16 50 C-16.18828772 47.55519921 -16.18828772 47.55519921 -17 45 C-18.96758273 43.63979849 -18.96758273 43.63979849 -21 43 Z M22 43 C20.23513282 44.76975869 20.23513282 44.76975869 19 47 C19.33 47.99 19.66 48.98 20 50 C22.0624994 48.18777466 22.0624994 48.18777466 24 46 C24 45.01 24 44.02 24 43 C23.34 43 22.68 43 22 43 Z M-41 46 C-40.50168276 49.68754757 -39.89932357 51.60490662 -37 54 C-36.34 53.67 -35.68 53.34 -35 53 C-36.1678266 49.18586998 -36.1678266 49.18586998 -39.125 46.6875 C-39.74375 46.460625 -40.3625 46.23375 -41 46 Z M40.9375 46.8125 C38.66848238 48.88726618 38.66848238 48.88726618 39 52 C41.03241727 51.36020151 41.03241727 51.36020151 43 50 C43.81171228 47.44480079 43.81171228 47.44480079 44 45 C42.66757159 44.8899809 42.66757159 44.8899809 40.9375 46.8125 Z " fill="#FFFFFF" transform="translate(538,344)"/>
<path d="M0 0 C0.69895386 0.0028299 1.39790771 0.00565979 2.11804199 0.00857544 C4.31846316 0.0196398 6.51845493 0.04471644 8.71875 0.0703125 C10.22395239 0.08036015 11.72916126 0.08948285 13.234375 0.09765625 C16.89596938 0.11953357 20.55731768 0.15396554 24.21875 0.1953125 C24.21875 4.1553125 24.21875 8.1153125 24.21875 12.1953125 C21.90875 12.5253125 19.59875 12.8553125 17.21875 13.1953125 C17.53972656 13.76765625 17.86070312 14.34 18.19140625 14.9296875 C20.18174402 19.31902554 20.04011849 23.86045792 18.44921875 28.3828125 C15.22232864 34.40330006 10.5174906 36.96626757 4.21875 39.1953125 C-0.08483075 40.3733346 -4.40066606 41.35077986 -8.78125 42.1953125 C-8.78125 43.1853125 -8.78125 44.1753125 -8.78125 45.1953125 C-7.5746875 45.30488281 -6.368125 45.41445313 -5.125 45.52734375 C-3.51036025 45.68693024 -1.89577992 45.84711869 -0.28125 46.0078125 C0.51023437 46.07806641 1.30171875 46.14832031 2.1171875 46.22070312 C10.36817946 47.06609165 17.30676429 49.14256522 23.21875 55.1953125 C25.64925552 59.95064939 25.54788574 64.14256747 24.21875 69.1953125 C21.64692558 75.31870397 16.89779548 77.24750425 11.19140625 79.99609375 C0.83853332 84.1726141 -12.54444746 83.38768722 -22.78125 79.1953125 C-27.0412739 77.05746962 -29.30356547 74.98647749 -31.78125 70.8828125 C-32.9473527 66.5828088 -33.20815975 63.43306254 -31.78125 59.1953125 C-29.67580679 55.76450036 -27.13907733 53.43386405 -23.78125 51.1953125 C-22.79125 51.1953125 -21.80125 51.1953125 -20.78125 51.1953125 C-21.27625 50.6796875 -21.77125 50.1640625 -22.28125 49.6328125 C-24.35825386 46.25768122 -24.26044182 44.09730304 -23.78125 40.1953125 C-21.78125 37.2578125 -21.78125 37.2578125 -19.78125 35.1953125 C-20.544375 34.5146875 -21.3075 33.8340625 -22.09375 33.1328125 C-25.58948134 29.31189685 -27.66881962 26.02855797 -27.87890625 20.734375 C-27.49150007 14.44138685 -26.03034628 10.15578347 -21.2421875 5.79296875 C-14.89111467 0.79041138 -7.91992739 -0.06387038 0 0 Z M-12.78125 15.1953125 C-13.93907531 19.17533699 -14.23468333 21.22366964 -12.46875 25.0078125 C-10.03835517 28.17232926 -10.03835517 28.17232926 -6.59375 30.0078125 C-2.6354275 30.27170067 -0.22739323 29.08093804 3.21875 27.1953125 C5.09118424 24.83441716 5.21096556 23.25629059 5.59375 20.2578125 C5.12852662 16.4584882 3.85483379 14.90892816 1.21875 12.1953125 C-4.12393416 9.52397042 -8.99189624 10.84870084 -12.78125 15.1953125 Z M-17.78125 61.1953125 C-18.19827122 64.1110816 -18.19827122 64.1110816 -17.78125 67.1953125 C-13.72793757 71.24862493 -9.40933717 71.3755059 -3.90625 71.4453125 C-2.69195313 71.47109375 -1.47765625 71.496875 -0.2265625 71.5234375 C4.43925533 71.0790739 6.95411633 69.45994617 10.21875 66.1953125 C10.28421898 63.68483765 10.28421898 63.68483765 9.21875 61.1953125 C2.52560716 55.98953474 -11.26110362 54.67516612 -17.78125 61.1953125 Z " fill="#FFFFFF" transform="translate(518.78125,694.8046875)"/>
<path d="M0 0 C6.6 0 13.2 0 20 0 C20.33 26.07 20.66 52.14 21 79 C16.05 79 11.1 79 6 79 C5.67 78.01 5.34 77.02 5 76 C4.071875 76.639375 3.14375 77.27875 2.1875 77.9375 C-3.2991662 81.04106876 -9.32134372 81.6505292 -15.49609375 80.55859375 C-22.5107868 78.48849041 -27.11828773 74.83594241 -30.8125 68.5 C-35.09464743 60.62860925 -35.24281831 50.78662538 -33.38671875 42.14453125 C-30.60889599 34.25159872 -25.20524819 28.38662864 -17.8125 24.5 C-11.76587248 22.11927209 -3.66174426 21.42982488 2.38671875 24.0234375 C2.91910156 24.34570312 3.45148437 24.66796875 4 25 C4.05404449 22.24973583 4.09369306 19.50053797 4.125 16.75 C4.14175781 15.97269531 4.15851562 15.19539062 4.17578125 14.39453125 C4.30594164 8.88593219 4.30594164 8.88593219 2 4 C1.34 3.67 0.68 3.34 0 3 C0 2.01 0 1.02 0 0 Z M-13 38 C-18.00284414 44.49017618 -18.77489787 49.99999803 -18 58 C-16.71223448 62.51085866 -15.00980067 65.2426495 -11.25 68.0625 C-5.97067147 69.58538323 -2.21746277 69.04013362 2.71484375 66.7265625 C6.50339043 62.20621108 5.64094922 57.12992661 5.5 51.4375 C5.50257813 50.28830078 5.50515625 49.13910156 5.5078125 47.95507812 C5.7683183 42.21690444 5.7683183 42.21690444 3.59887695 37.18725586 C-1.41367231 33.46515675 -8.237343 34.56645658 -13 38 Z " fill="#FFFFFF" transform="translate(725,671)"/>
<path d="M0 0 C5.70455707 4.58252103 8.46835604 9.61209938 10.75 16.45703125 C11.59457883 26.32891168 10.31349643 33.92746782 4.9375 42.26953125 C-2.37164853 49.57867978 -10.51650062 52.33998909 -20.8125 52.89453125 C-28.69743824 52.5653959 -36.12199467 49.45301479 -41.8203125 44.02734375 C-48.65361724 36.52191067 -49.79100753 29.07820827 -49.6171875 19.21875 C-48.85682814 11.42911105 -45.54884104 6.38373484 -40 1.01953125 C-28.47972526 -8.34423886 -12.16781887 -8.34425079 0 0 Z M-31.6875 13.51953125 C-34.06158981 18.26771086 -33.89810941 23.28777309 -33.25 28.45703125 C-31.70477005 32.70641361 -29.7043237 35.54244563 -26.25 38.45703125 C-22.52400457 39.69902973 -19.12020783 39.9921168 -15.25 39.45703125 C-10.14790078 36.76158261 -7.07618963 33.93560015 -5.25 28.45703125 C-4.523193 21.74896009 -4.97696163 15.89544372 -9.25 10.45703125 C-12.27201413 7.86673343 -15.30093129 6.61520937 -19.25 5.95703125 C-24.9522769 6.90741073 -28.17926149 9.1117444 -31.6875 13.51953125 Z " fill="#FFFFFF" transform="translate(632.25,699.54296875)"/>
<path d="M0 0 C5.06625292 3.61205069 7.19798363 8.378587 8.23217773 14.34594727 C8.71688987 18.45209583 8.81435868 22.41573916 8.78515625 26.54296875 C8.7837413 27.30992569 8.78232635 28.07688263 8.78086853 28.86708069 C8.77531766 31.2916369 8.76277463 33.71609719 8.75 36.140625 C8.74497864 37.79492053 8.74041685 39.44921753 8.73632812 41.10351562 C8.72621968 45.1367845 8.70663521 49.1698487 8.6875 53.203125 C3.4075 53.203125 -1.8725 53.203125 -7.3125 53.203125 C-7.342229 51.454552 -7.342229 51.454552 -7.37255859 49.6706543 C-7.44858959 45.34865595 -7.53731076 41.02699538 -7.62988281 36.70532227 C-7.66818294 34.83429632 -7.703034 32.96319647 -7.734375 31.09204102 C-7.78000324 28.40353981 -7.83800088 25.71554777 -7.8984375 23.02734375 C-7.90998871 22.18975021 -7.92153992 21.35215668 -7.93344116 20.48918152 C-8.03296457 16.57939463 -8.0972302 14.5260297 -10.3125 11.203125 C-15.8901958 9.90813856 -15.8901958 9.90813856 -21.1875 11.515625 C-23.36186863 13.17648969 -23.36186863 13.17648969 -25.3125 15.203125 C-25.55831843 18.06749324 -25.68619381 20.8421564 -25.7265625 23.7109375 C-25.74592865 24.55155731 -25.7652948 25.39217712 -25.7852478 26.25827026 C-25.84511658 28.94811803 -25.89145771 31.63800843 -25.9375 34.328125 C-25.9756731 36.14975844 -26.01472444 37.9713737 -26.0546875 39.79296875 C-26.15082398 44.26287352 -26.23482769 48.73286279 -26.3125 53.203125 C-31.5925 53.203125 -36.8725 53.203125 -42.3125 53.203125 C-42.33231934 51.80030273 -42.35213867 50.39748047 -42.37255859 48.95214844 C-42.44861688 43.74867772 -42.53733425 38.54548656 -42.62988281 33.34228516 C-42.66817157 31.09006264 -42.70302461 28.837779 -42.734375 26.58544922 C-42.78002737 23.34841053 -42.83802215 20.11179264 -42.8984375 16.875 C-42.90998871 15.86757751 -42.92153992 14.86015503 -42.93344116 13.82220459 C-42.95331085 12.88153137 -42.97318054 11.94085815 -42.99365234 10.97167969 C-43.00697601 10.14561218 -43.02029968 9.31954468 -43.0340271 8.46844482 C-43.34199009 5.96322921 -43.97638158 4.33650145 -45.3125 2.203125 C-45.9725 1.873125 -46.6325 1.543125 -47.3125 1.203125 C-47.3125 0.213125 -47.3125 -0.776875 -47.3125 -1.796875 C-40.7125 -1.796875 -34.1125 -1.796875 -27.3125 -1.796875 C-26.9825 -0.476875 -26.6525 0.843125 -26.3125 2.203125 C-25.405 1.56375 -24.4975 0.924375 -23.5625 0.265625 C-16.30774047 -4.33835701 -7.43824264 -4.25899377 0 0 Z " fill="#FFFFFF" transform="translate(473.3125,696.796875)"/>
<path d="M0 0 C4.73368271 4.46495836 7.07295827 7.83172873 7.26576233 14.41043091 C7.28247482 15.14381683 7.29918732 15.87720276 7.31640625 16.6328125 C7.33718735 17.38464813 7.35796844 18.13648376 7.37937927 18.91110229 C7.44482705 21.31564085 7.50373738 23.72028967 7.5625 26.125 C7.60568977 27.75391771 7.64930421 29.38282422 7.69335938 31.01171875 C7.80050351 35.00769915 7.90178433 39.00379059 8 43 C10.97 42.505 10.97 42.505 14 42 C14 45.3 14 48.6 14 52 C10.31861363 53.6867443 7.41806576 54.27227584 3.375 54.25 C1.96347656 54.25773438 1.96347656 54.25773438 0.5234375 54.265625 C-2 54 -2 54 -5 52 C-5 51.34 -5 50.68 -5 50 C-5.86625 50.66 -6.7325 51.32 -7.625 52 C-13.28702071 55.23544041 -19.7036746 54.73247499 -26 54 C-29.92756195 52.78199986 -32.30684247 50.87799954 -34.875 47.625 C-37.02099123 42.61768712 -37.51144024 38.3492268 -35.97265625 33.01953125 C-32.83039786 26.49524375 -26.06780256 23.07808651 -19.54296875 20.7109375 C-15.68744897 19.63305025 -11.99191238 19.25754273 -8 19 C-9.09786425 13.59212615 -9.09786425 13.59212615 -13 10 C-21.02554912 9.29316265 -26.52687868 12.6537614 -33 17 C-33 12.38 -33 7.76 -33 3 C-22.70797896 -2.28143185 -10.92188517 -6.86791032 0 0 Z M-15.5625 29.8125 C-16.74005859 30.31716797 -16.74005859 30.31716797 -17.94140625 30.83203125 C-20.30384724 31.96831644 -20.30384724 31.96831644 -22 35 C-22.34507474 37.76059793 -22.35198412 39.36202878 -21 41.8125 C-17.86940917 43.6712883 -14.55225172 43.55145843 -11 43 C-10.01 42.34 -9.02 41.68 -8 41 C-7.63469768 37.87442041 -7.63469768 37.87442041 -7.8125 34.375 C-7.85310547 32.59222656 -7.85310547 32.59222656 -7.89453125 30.7734375 C-7.92933594 29.85820313 -7.96414063 28.94296875 -8 28 C-11.15027433 28 -12.71573184 28.5602972 -15.5625 29.8125 Z " fill="#FFFFFF" transform="translate(410,697)"/>
<path d="M0 0 C7.59 0 15.18 0 23 0 C23 22.11 23 44.22 23 67 C33.23 67 43.46 67 54 67 C54 70.96 54 74.92 54 79 C38.16 79 22.32 79 6 79 C5.95101563 74.16085937 5.90203125 69.32171875 5.8515625 64.3359375 C5.8161634 61.26430242 5.78019615 58.19269494 5.7421875 55.12109375 C5.68195594 50.24922708 5.62379184 45.3773989 5.578125 40.50537109 C5.54116199 36.57599569 5.49477265 32.64683282 5.44193649 28.71763992 C5.42345092 27.22103237 5.40832156 25.72437935 5.39665604 24.22770309 C5.37969302 22.12602883 5.35063538 20.02483515 5.31884766 17.92333984 C5.29886215 16.1313063 5.29886215 16.1313063 5.2784729 14.30307007 C4.98830376 10.86126655 4.37348039 8.16709307 3 5 C2.01 4.34 1.02 3.68 0 3 C0 2.01 0 1.02 0 0 Z " fill="#FFFFFF" transform="translate(317,671)"/>
<path d="M0 0 C0.29296875 2.8203125 0.29296875 2.8203125 0.1875 6.125 C0.14689453 7.76855469 0.14689453 7.76855469 0.10546875 9.4453125 C0.07066406 10.28835938 0.03585937 11.13140625 0 12 C-0.87978516 11.75830078 -0.87978516 11.75830078 -1.77734375 11.51171875 C-4.91483453 10.78937904 -7.79342954 10.82509616 -11 11 C-14.12455058 12.64179359 -14.12455058 12.64179359 -14.73046875 15.1640625 C-14.88128906 15.97617187 -15.03210938 16.78828125 -15.1875 17.625 C-15.455625 19.06875 -15.72375 20.5125 -16 22 C-12.04 22 -8.08 22 -4 22 C-4 25.96 -4 29.92 -4 34 C-7.96 34 -11.92 34 -16 34 C-16 48.19 -16 62.38 -16 77 C-20.95 77 -25.9 77 -31 77 C-31 62.81 -31 48.62 -31 34 C-33.31 34 -35.62 34 -38 34 C-38 30.04 -38 26.08 -38 22 C-35.69 22 -33.38 22 -31 22 C-31.061875 21.030625 -31.12375 20.06125 -31.1875 19.0625 C-31.17563811 13.21458711 -29.28302715 8.03514651 -26.1875 3.125 C-19.39531155 -3.47312592 -8.0498287 -5.36655247 0 0 Z " fill="#FFFFFF" transform="translate(584,673)"/>
<path d="M0 0 C-0.31182069 1.41681634 -0.62448737 2.83344651 -0.9375 4.25 C-1.11152344 5.03890625 -1.28554688 5.8278125 -1.46484375 6.640625 C-1.947556 8.76878703 -2.46163178 10.88532842 -3 13 C-3.64066406 12.82082031 -4.28132812 12.64164063 -4.94140625 12.45703125 C-10.9590927 10.93902159 -10.9590927 10.93902159 -16.9375 12 C-20.60935444 14.39794576 -21.38849756 15.95759705 -23 20 C-23.31166518 22.67458352 -23.48699924 25.13205897 -23.51171875 27.8046875 C-23.52966995 28.5286673 -23.54762115 29.25264709 -23.56611633 29.99856567 C-23.61991138 32.29065277 -23.65401402 34.58253541 -23.6875 36.875 C-23.72070049 38.43752827 -23.75519266 40.00002966 -23.79101562 41.5625 C-23.87803184 45.37502434 -23.93835714 49.18664492 -24 53 C-28.95 53 -33.9 53 -39 53 C-39.01981934 51.69853027 -39.03963867 50.39706055 -39.06005859 49.05615234 C-39.13629747 44.21416316 -39.22498674 39.37246732 -39.31738281 34.53076172 C-39.35559706 32.4377218 -39.39046298 30.3446179 -39.421875 28.25146484 C-39.46768959 25.23772359 -39.52565719 22.22441992 -39.5859375 19.2109375 C-39.59748871 18.27945892 -39.60903992 17.34798035 -39.62094116 16.38827515 C-39.72898813 11.60052936 -39.93633673 7.41792225 -42 3 C-42.99 2.34 -43.98 1.68 -45 1 C-45 0.01 -45 -0.98 -45 -2 C-38.4 -2 -31.8 -2 -25 -2 C-24.67 -0.35 -24.34 1.3 -24 3 C-23.0925 2.195625 -22.185 1.39125 -21.25 0.5625 C-14.57855847 -4.9426056 -7.36382568 -3.60677176 0 0 Z " fill="#FFFFFF" transform="translate(690,697)"/>
<path d="M0 0 C0.495 0.99 0.495 0.99 1 2 C0.67 2.99 0.34 3.98 0 5 C-0.79881592 4.90912109 -1.59763184 4.81824219 -2.4206543 4.72460938 C-29.1021238 1.73894892 -54.31792384 1.56015046 -81 5 C-81.5625 3.0625 -81.5625 3.0625 -82 1 C-69.74764379 -11.25235621 -15.24646281 -3.33038967 0 0 Z " fill="#FFFFFF" transform="translate(580,413)"/>
<path d="M0 0 C3.150313 1.54301045 4.36690902 2.64253515 5.83984375 5.80078125 C7.14090747 9.76556122 7.0830732 11.7332913 5.8125 15.8125 C3.51087561 19.86018427 2.41401229 21.52866257 -2 23 C-6.79566077 23.39308695 -9.06907584 23.48270142 -13.375 21.25 C-17.33169339 17.85854852 -17.85083268 16.32119623 -18.4375 11.125 C-18.33897037 6.33287732 -16.35822174 4.27826408 -13 1 C-9.04967675 -0.97516163 -4.30637252 -0.42939264 0 0 Z M-13 7 C-14.09310383 10.04507494 -14.12181739 11.5634877 -13.25 14.6875 C-12.07878737 17.2856128 -12.07878737 17.2856128 -9 19 C-5.54230809 19.58342353 -5.54230809 19.58342353 -2 19 C0.9236459 16.4511805 1.84909176 14.80484394 2.5625 11 C1.79301948 6.89610387 0.32878632 5.46040728 -3 3 C-7.85972396 2.10739764 -10.09839316 3.02372396 -13 7 Z " fill="#FFFFFF" transform="translate(475,791)"/>
<path d="M0 0 C1.09570312 0.00902344 2.19140625 0.01804687 3.3203125 0.02734375 C4.16335938 0.03894531 5.00640625 0.05054688 5.875 0.0625 C6.205 1.7125 6.535 3.3625 6.875 5.0625 C6.21113281 4.93230469 5.54726563 4.80210937 4.86328125 4.66796875 C-1.00173092 3.71086631 -1.00173092 3.71086631 -6.3125 6.0625 C-8.39797403 8.99805845 -8.39797403 8.99805845 -8.375 12.6875 C-7.42063752 16.35942203 -7.42063752 16.35942203 -3.8125 18 C-0.12398209 19.247081 -0.12398209 19.247081 3.875 19.0625 C3.875 17.4125 3.875 15.7625 3.875 14.0625 C2.225 14.0625 0.575 14.0625 -1.125 14.0625 C-1.125 13.0725 -1.125 12.0825 -1.125 11.0625 C1.845 11.0625 4.815 11.0625 7.875 11.0625 C7.875 14.3625 7.875 17.6625 7.875 21.0625 C3.61439981 23.19280009 0.51114167 23.64313431 -4.125 23.0625 C-8.19837573 21.52537708 -11.22598686 20.07152774 -13.125 16.0625 C-13.78746288 12.20549393 -14.02587811 8.67073425 -12.0703125 5.1796875 C-8.19155713 0.42878595 -5.91436996 -0.06291883 0 0 Z " fill="#FFFFFF" transform="translate(603.125,790.9375)"/>
<path d="M0 0 C4.27133989 2.96378686 4.27133989 2.96378686 6 5 C5.93219877 8.39006131 5.06714735 10.79855795 4 14 C5.43769256 16.2562233 5.43769256 16.2562233 7.4375 18.5 C11 22.68297456 11 22.68297456 11 26 C5.92523206 27.26305335 1.27203646 28.27036084 -4 28 C-4 24.03447698 -3.62480013 22.90566118 -1.875 19.5625 C-0.14519023 16.02266012 -0.14519023 16.02266012 -0.6875 12.1875 C-1.3371875 11.1046875 -1.3371875 11.1046875 -2 10 C-2.8125 8.0625 -2.8125 8.0625 -3 6 C-1.5625 2.75 -1.5625 2.75 0 0 Z " fill="#FFFFFF" transform="translate(509,353)"/>
<path d="M0 0 C5.28 0 10.56 0 16 0 C16 0.99 16 1.98 16 3 C12.7 3 9.4 3 6 3 C6 4.98 6 6.96 6 9 C8.97 9 11.94 9 15 9 C15 10.32 15 11.64 15 13 C12.03 13 9.06 13 6 13 C6 14.98 6 16.96 6 19 C9.3 19 12.6 19 16 19 C16 19.99 16 20.98 16 22 C11.05 22 6.1 22 1 22 C0.67 14.74 0.34 7.48 0 0 Z " fill="#FFFFFF" transform="translate(558,791)"/>
<path d="M0 0 C1.625 2.75 1.625 2.75 3 6 C2.25 8.0625 2.25 8.0625 1 10 C-0.42768582 14.41284708 0.41624086 16.72068272 2.4375 20.8125 C2.91058594 21.78832031 3.38367188 22.76414062 3.87109375 23.76953125 C4.24363281 24.50558594 4.61617187 25.24164063 5 26 C3.27119018 26.05449838 1.54187288 26.09301688 -0.1875 26.125 C-1.15042969 26.14820313 -2.11335937 26.17140625 -3.10546875 26.1953125 C-6.12812778 25.9913544 -8.26769985 25.26874632 -11 24 C-9.29071473 20.38792546 -7.13850911 17.24977106 -4.828125 14 C-4.55484375 13.34 -4.2815625 12.68 -4 12 C-4.82137728 9.8936801 -4.82137728 9.8936801 -6 8 C-5.78578458 5.07238926 -5.39219597 3.49450796 -3.5625 1.1875 C-2 0 -2 0 0 0 Z " fill="#FFFFFF" transform="translate(571,354)"/>
<path d="M0 0 C5.28 0 10.56 0 16 0 C16 0.99 16 1.98 16 3 C12.7 3 9.4 3 6 3 C6 4.98 6 6.96 6 9 C8.97 9 11.94 9 15 9 C15 10.32 15 11.64 15 13 C12.03 13 9.06 13 6 13 C6 14.98 6 16.96 6 19 C9.3 19 12.6 19 16 19 C16 19.99 16 20.98 16 22 C11.38 22 6.76 22 2 22 C1.93941406 20.66324219 1.87882813 19.32648437 1.81640625 17.94921875 C1.73199313 16.19530179 1.64734552 14.4413961 1.5625 12.6875 C1.52318359 11.80642578 1.48386719 10.92535156 1.44335938 10.01757812 C1.40146484 9.17001953 1.35957031 8.32246094 1.31640625 7.44921875 C1.26141968 6.27879028 1.26141968 6.27879028 1.20532227 5.0847168 C1.05874737 2.80670899 1.05874737 2.80670899 0 0 Z " fill="#FFFFFF" transform="translate(627,791)"/>
<path d="M0 0 C0.9796875 -0.00257813 1.959375 -0.00515625 2.96875 -0.0078125 C5.5 0.125 5.5 0.125 7.5 1.125 C7.5 2.445 7.5 3.765 7.5 5.125 C6.48679687 4.96451172 6.48679687 4.96451172 5.453125 4.80078125 C4.11507813 4.62095703 4.11507813 4.62095703 2.75 4.4375 C1.86828125 4.30988281 0.9865625 4.18226563 0.078125 4.05078125 C-3.10993665 4.14255878 -4.25302127 4.90852324 -6.5 7.125 C-7.41464338 10.1955885 -7.71651589 12.25893644 -6.9375 15.375 C-4.74364638 18.04577832 -2.8675745 18.48960858 0.5 19.125 C4.29200504 18.35233742 4.29200504 18.35233742 7.5 17.125 C7.125 19.5625 7.125 19.5625 6.5 22.125 C3.30031426 23.72484287 -0.01957927 23.4879489 -3.5 23.125 C-7.57337573 21.58787708 -10.60098686 20.13402774 -12.5 16.125 C-13.16246288 12.26799393 -13.40087811 8.73323425 -11.4453125 5.2421875 C-7.78308417 0.75649955 -5.59185231 -0.0147154 0 0 Z " fill="#FFFFFF" transform="translate(433.5,790.875)"/>
<path d="M0 0 C2.0625 1.25 2.0625 1.25 3 3 C2.875 5.125 2.875 5.125 2 7 C-1 8 -1 8 -4.1875 7.8125 C-8.93471866 8.04596977 -12.15889639 9.21158378 -16 12 C-17.98168712 14.23538137 -19.4241732 16.43928145 -21 19 C-22.28959008 16.42081984 -21.85789778 15.54697402 -21.0625 12.8125 C-19.17350674 7.37395662 -15.70010631 4.18394298 -11 1 C-7.24604616 -0.25131795 -3.92706604 -0.45720519 0 0 Z " fill="#FFFFFF" transform="translate(674,587)"/>
<path d="M0 0 C3.9745504 0.69849772 7.26574098 2.62892769 10.75 4.5625 C11.35199219 4.89185547 11.95398438 5.22121094 12.57421875 5.56054688 C14.05170503 6.3696465 15.52616036 7.18427662 17 8 C15 11 15 11 12.25 11.6953125 C10.64125 11.90800781 10.64125 11.90800781 9 12.125 C4.85916791 12.60475056 4.85916791 12.60475056 1 14 C3.97 15.65 6.94 17.3 10 19 C10 19.99 10 20.98 10 22 C3.83643195 20.3341708 -1.48259656 17.12194714 -7 14 C-6.67 13.01 -6.34 12.02 -6 11 C-0.61972975 9.80911014 4.45291384 8.7080481 10 9 C10 8.34 10 7.68 10 7 C9.113125 6.731875 8.22625 6.46375 7.3125 6.1875 C4.23122452 5.08289181 1.73778595 3.77150856 -1 2 C-0.67 1.34 -0.34 0.68 0 0 Z " fill="#FFFFFF" transform="translate(327,404)"/>
<path d="M0 0 C1.796875 0.08984375 1.796875 0.08984375 4 1 C5.703125 3.94140625 5.703125 3.94140625 7.25 7.5625 C7.77078125 8.76003906 8.2915625 9.95757812 8.828125 11.19140625 C9.21484375 12.11824219 9.6015625 13.04507812 10 14 C10.18175781 13.28972656 10.36351562 12.57945312 10.55078125 11.84765625 C10.80214844 10.92855469 11.05351563 10.00945312 11.3125 9.0625 C11.55613281 8.14597656 11.79976562 7.22945313 12.05078125 6.28515625 C12.36402344 5.53105469 12.67726563 4.77695312 13 4 C13.99 3.67 14.98 3.34 16 3 C15.37968409 9.57534861 13.85102717 15.66692592 12 22 C9 21 9 21 7.39453125 18.05859375 C6.87246094 16.86363281 6.35039063 15.66867187 5.8125 14.4375 C5.28269531 13.23996094 4.75289062 12.04242188 4.20703125 10.80859375 C3.80871094 9.88175781 3.41039062 8.95492188 3 8 C2.79503906 8.62648438 2.59007812 9.25296875 2.37890625 9.8984375 C2.10949219 10.71570313 1.84007812 11.53296875 1.5625 12.375 C1.29566406 13.18710937 1.02882813 13.99921875 0.75390625 14.8359375 C0 17 0 17 -1 19 C-1.66 19 -2.32 19 -3 19 C-2.37679879 12.56025419 -1.35991738 6.32427599 0 0 Z " fill="#FFFFFF" transform="translate(589,286)"/>
<path d="M0 0 C2.875 2.0625 2.875 2.0625 5 5 C5.73301898 9.61801955 5.71565523 12.58960049 3.0625 16.5 C-0.54804906 19.44738699 -2.37739136 19.77043152 -6.91015625 19.46875 C-9.90957133 18.795984 -11.25192088 17.47644542 -13 15 C-14.53214888 11.93570224 -14.22938548 9.3834358 -14 6 C-12.64700176 2.79553048 -11.67744403 1.40280456 -8.6875 -0.375 C-5.30671597 -1.16122884 -3.32201297 -1.03812905 0 0 Z M-11 6 C-11.57142935 10.00000547 -11.59507628 12.08449804 -9.375 15.5 C-7.03661931 17.27255892 -7.03661931 17.27255892 -3.9375 17 C-0.98641689 16.2104836 -0.98641689 16.2104836 0.875 14.3125 C2.35810604 11.26389315 2.48891657 9.35257076 2 6 C0.01677007 3.2087875 -1.12986121 2.17402776 -4.5 1.5 C-7.90524375 2.18104875 -9.02547983 3.1479153 -11 6 Z " fill="#FFFFFF" transform="translate(566,282)"/>
<path d="M0 0 C-0.45738073 4.68191549 -2.19110394 6.63104174 -5.5625 9.8125 C-6.38878906 10.60269531 -7.21507812 11.39289063 -8.06640625 12.20703125 C-8.70449219 12.79871094 -9.34257813 13.39039063 -10 14 C-6.04 14 -2.08 14 2 14 C2 14.66 2 15.32 2 16 C-4.46794133 17.51233701 -10.35590042 18.21432579 -17 18 C-14.72700526 12.5548038 -10.16252694 9.0435976 -6 5 C-10.29 5 -14.58 5 -19 5 C-19 4.34 -19 3.68 -19 3 C-16.20869212 2.49792321 -13.41699129 1.99824925 -10.625 1.5 C-9.8309375 1.35691406 -9.036875 1.21382813 -8.21875 1.06640625 C-2.2265625 0 -2.2265625 0 0 0 Z " fill="#FFFFFF" transform="translate(781,485)"/>
<path d="M0 0 C2.3828125 0.51171875 2.3828125 0.51171875 5.5078125 2.51171875 C7.58110204 5.82898201 8.12898229 7.73119595 7.8671875 11.578125 C7.00664559 15.01335279 5.19013442 16.49777042 2.3828125 18.51171875 C-0.91406768 19.54199381 -2.89067137 19.68469878 -6.2421875 18.88671875 C-9.2671271 17.13543793 -10.78762239 15.49323226 -12.6171875 12.51171875 C-13.40206522 8.41291286 -12.77941444 6.80372724 -10.7421875 3.13671875 C-7.6357318 -0.22712899 -4.40120644 -0.29560342 0 0 Z M-8.6171875 4.63671875 C-10.09620416 7.40987499 -10.00320734 9.42356 -9.6171875 12.51171875 C-7.94538127 15.3636235 -6.44901739 15.56154693 -3.2421875 16.51171875 C0.50252442 16.86093756 0.50252442 16.86093756 3.3828125 14.38671875 C5.63265321 11.73627796 5.63265321 11.73627796 5.3828125 8.88671875 C4.05803558 5.62717423 4.05803558 5.62717423 1.3828125 3.51171875 C-2.2109782 2.96402205 -5.40311573 2.82880338 -8.6171875 4.63671875 Z " fill="#FFFFFF" transform="translate(320.6171875,436.48828125)"/>
<path d="M0 0 C1.2421875 1.578125 1.2421875 1.578125 2 4 C0.81301179 6.46941266 -0.35228523 8.50781483 -1.875 10.75 C-2.26558594 11.35199219 -2.65617188 11.95398438 -3.05859375 12.57421875 C-4.02479188 14.05886465 -5.01057788 15.53072939 -6 17 C-5.09507812 16.65775391 -5.09507812 16.65775391 -4.171875 16.30859375 C-3.37265625 16.02113281 -2.5734375 15.73367188 -1.75 15.4375 C-0.96109375 15.14746094 -0.1721875 14.85742188 0.640625 14.55859375 C3.19103452 13.95477163 4.55322229 14.1526068 7 15 C4.44761309 17.55238691 1.982213 18.37101985 -1.375 19.6875 C-2.51710938 20.14511719 -3.65921875 20.60273438 -4.8359375 21.07421875 C-8 22 -8 22 -12 21 C-9.36 16.38 -6.72 11.76 -4 7 C-6.1346875 7.7425 -6.1346875 7.7425 -8.3125 8.5 C-11.13135886 9.48047265 -12.98509443 10 -16 10 C-16 9.01 -16 8.02 -16 7 C-14.92878906 6.57847656 -13.85757813 6.15695312 -12.75390625 5.72265625 C-11.35671698 5.16940681 -9.95958449 4.61601398 -8.5625 4.0625 C-7.50192383 3.64581055 -7.50192383 3.64581055 -6.41992188 3.22070312 C-2.95326119 2.03777966 -2.95326119 2.03777966 0 0 Z " fill="#FFFFFF" transform="translate(764,429)"/>
<path d="M0 0 C4.6552625 0.81671272 6.52627604 1.9963421 9.5625 5.625 C10.37830179 8.79497265 10.33701343 11.44893772 9.5625 14.625 C8.11576996 17.06107465 6.61771356 18.62116678 4.5625 20.625 C-0.4375 17.29166667 -5.4375 13.95833333 -10.4375 10.625 C-8.66380978 4.98144019 -6.03282392 1.09687708 0 0 Z M-3.4375 3.625 C-4.9225 6.1 -4.9225 6.1 -6.4375 8.625 C-1.4875 12.585 -1.4875 12.585 3.5625 16.625 C6.59179767 13.97299921 6.59179767 13.97299921 7.5625 11.25 C7.8212216 8.39651858 7.8212216 8.39651858 5.5 5.8125 C2.73506279 3.42747662 2.73506279 3.42747662 -0.5625 3 C-1.51125 3.20625 -2.46 3.4125 -3.4375 3.625 Z " fill="#FFFFFF" transform="translate(348.4375,377.375)"/>
<path d="M0 0 C3.25415498 2.40524498 4.69571685 4.10616823 6 7.9375 C6 11.88141866 5.28875518 13.78143803 3 17 C-0.54022685 18.8965501 -2.97549323 20 -7 20 C-8.00399524 17.37646482 -9.00334445 14.75132205 -10 12.125 C-10.42925781 11.00544922 -10.42925781 11.00544922 -10.8671875 9.86328125 C-13 4.2265625 -13 4.2265625 -13 2 C-8.50514654 0.24591085 -4.82194702 -0.61370235 0 0 Z M-8 3 C-9.31707847 5.0768238 -9.31707847 5.0768238 -8.22265625 7.8203125 C-7.83980469 8.91085937 -7.45695312 10.00140625 -7.0625 11.125 C-6.68222656 12.22070312 -6.30195313 13.31640625 -5.91015625 14.4453125 C-5.60980469 15.28835938 -5.30945313 16.13140625 -5 17 C-2.03656902 16.20337139 -2.03656902 16.20337139 1 15 C2.75 12.25 2.75 12.25 3 9 C1.88483109 6.61035234 0.86049542 4.86049542 -1 3 C-3.33297433 2.95907063 -5.66705225 2.95758277 -8 3 Z " fill="#FFFFFF" transform="translate(463,295)"/>
<path d="M0 0 C2.9934377 0.33260419 4.7494744 0.81389527 7.1875 2.625 C11.07942744 7.72476699 11.2229936 12.77041697 10.58203125 18.88671875 C9.88222577 21.42762321 8.67983476 22.99415957 7 25 C6.85304688 24.23816406 6.70609375 23.47632813 6.5546875 22.69140625 C4.95586961 15.33133079 2.63403453 9.9387627 -2 4 C-1.34 2.68 -0.68 1.36 0 0 Z " fill="#FFFFFF" transform="translate(421,584)"/>
<path d="M0 0 C2.475 0.99 2.475 0.99 5 2 C3.88139104 5.25413517 2.43447623 7.87423515 0.5 10.6875 C-2.42264083 15.19647096 -3.27715993 19.73513505 -4 25 C-7.70897311 20.63945053 -8.13838601 16.61328239 -8 11 C-6.92018074 5.89978227 -4.28620512 2.89608454 0 0 Z " fill="#FFFFFF" transform="translate(655,584)"/>
<path d="M0 0 C3 1.5 3 1.5 5 4 C6.10300109 7.86050383 6.28564483 11.1430655 5 15 C4.01 15 3.02 15 2 15 C2.03480469 14.37351562 2.06960938 13.74703125 2.10546875 13.1015625 C2.13253906 12.28429687 2.15960937 11.46703125 2.1875 10.625 C2.22230469 9.81289063 2.25710938 9.00078125 2.29296875 8.1640625 C2.19628906 7.44992187 2.09960938 6.73578125 2 6 C-2.2024454 3.19836974 -5.00104935 3.85510288 -10 4 C-10.33 6.97 -10.66 9.94 -11 13 C-9.68 13 -8.36 13 -7 13 C-7 11.68 -7 10.36 -7 9 C-6.01 9 -5.02 9 -4 9 C-4 11.31 -4 13.62 -4 16 C-10.0546875 16.1953125 -10.0546875 16.1953125 -12 16 C-14.37040308 13.62959692 -14.34465793 12.93697247 -14.4375 9.6875 C-14.33489804 6.15343238 -14.02833521 5.04478791 -12.0625 1.9375 C-7.93015156 -0.67684289 -4.7641517 -0.90622451 0 0 Z " fill="#FFFFFF" transform="translate(779,520)"/>
<path d="M0 0 C2.4375 0.8125 2.4375 0.8125 4.4375 3.8125 C4.4375 6.4525 4.4375 9.0925 4.4375 11.8125 C-4.9675 12.3075 -4.9675 12.3075 -14.5625 12.8125 C-14.5625 3.8125 -14.5625 3.8125 -12.5625 1.8125 C-10.22916667 1.8125 -7.89583333 1.8125 -5.5625 1.8125 C-2.5625 -0.1875 -2.5625 -0.1875 0 0 Z M-2.5625 2.8125 C-3.2225 3.4725 -3.8825 4.1325 -4.5625 4.8125 C-4.5625 6.1325 -4.5625 7.4525 -4.5625 8.8125 C-2.2525 8.8125 0.0575 8.8125 2.4375 8.8125 C2.1075 7.1625 1.7775 5.5125 1.4375 3.8125 C-0.45429203 3.1310177 -0.45429203 3.1310177 -2.5625 2.8125 Z M-11.5625 4.8125 C-11.8925 6.1325 -12.2225 7.4525 -12.5625 8.8125 C-10.5825 8.8125 -8.6025 8.8125 -6.5625 8.8125 C-6.8925 7.4925 -7.2225 6.1725 -7.5625 4.8125 C-8.8825 4.8125 -10.2025 4.8125 -11.5625 4.8125 Z " fill="#FFFFFF" transform="translate(309.5625,527.1875)"/>
<path d="M0 0 C2.25 1.0625 2.25 1.0625 3.625 3.5 C4.25 6.0625 4.25 6.0625 3.25 8.0625 C6.22 9.0525 9.19 10.0425 12.25 11.0625 C11.92 12.0525 11.59 13.0425 11.25 14.0625 C7.62 13.0725 3.99 12.0825 0.25 11.0625 C0.91 12.01125 1.57 12.96 2.25 13.9375 C4.25 17.0625 4.25 17.0625 4.25 19.0625 C3.26 19.3925 2.27 19.7225 1.25 20.0625 C-0.04454565 18.14777667 -1.33552944 16.23064482 -2.625 14.3125 C-3.34429687 13.24515625 -4.06359375 12.1778125 -4.8046875 11.078125 C-6.29507257 8.76772886 -7.60199401 6.55186036 -8.75 4.0625 C-3.56192335 0.0809528 -3.56192335 0.0809528 0 0 Z M-3.75 3.0625 C-4.0481424 6.8388932 -4.0481424 6.8388932 -2.75 9.0625 C-1.43 8.4025 -0.11 7.7425 1.25 7.0625 C0.59 5.7425 -0.07 4.4225 -0.75 3.0625 C-1.74 3.0625 -2.73 3.0625 -3.75 3.0625 Z " fill="#FFFFFF" transform="translate(404.75,322.9375)"/>
<path d="M0 0 C-0.44671894 5.06281464 -2.73569934 7.32766175 -6 11 C-7.38226016 13.76452033 -7.09525387 16.0461363 -7.0625 19.125 C-7.04896484 20.76855469 -7.04896484 20.76855469 -7.03515625 22.4453125 C-7.02355469 23.28835938 -7.01195312 24.13140625 -7 25 C-10.0504061 22.22690355 -11.77413449 19.77759089 -12.30078125 15.6328125 C-12.33046434 9.28063059 -11.72627068 4.81714637 -7.125 0.0625 C-4.36752271 -1.31623864 -2.89009221 -0.88308373 0 0 Z " fill="#FFFFFF" transform="translate(518,579)"/>
<path d="M0 0 C3.88410563 0.26482538 5.5462048 0.53394007 8.3125 3.375 C11.3496543 8.09946224 11.67756183 12.52670835 11 18 C9.90668796 20.89321877 8.56446928 23.31106843 7 26 C6.14667816 23.06874176 6.03390501 21.29929654 6.1875 18.125 C6.25270298 13.74825008 4.77553816 11.40994688 2 8 C1.401875 7.484375 0.80375 6.96875 0.1875 6.4375 C-0.204375 5.963125 -0.59625 5.48875 -1 5 C-0.6875 2.3125 -0.6875 2.3125 0 0 Z " fill="#FFFFFF" transform="translate(562,578)"/>
<path d="M0 0 C3.09350657 2.53105083 4.20571155 5.10798661 5 9 C3.9375 11.375 3.9375 11.375 2 13 C1.21625 12.9175 0.4325 12.835 -0.375 12.75 C-1.674375 12.87375 -1.674375 12.87375 -3 13 C-4.53541615 14.9885619 -5.7056842 17.0341176 -6.88671875 19.25 C-7.25410156 19.8275 -7.62148438 20.405 -8 21 C-8.66 21 -9.32 21 -10 21 C-9.33501617 16.61110675 -7.81242323 13.0188515 -6 9 C-7.3921875 9.7425 -7.3921875 9.7425 -8.8125 10.5 C-12 12 -12 12 -15 12 C-15 11.01 -15 10.02 -15 9 C-13.50146484 8.15115234 -13.50146484 8.15115234 -11.97265625 7.28515625 C-10.66922254 6.5443558 -9.36583975 5.80346575 -8.0625 5.0625 C-7.40314453 4.68931641 -6.74378906 4.31613281 -6.06445312 3.93164062 C-2.84167167 2.23037187 -2.84167167 2.23037187 0 0 Z M-4 7 C-3.67 7.99 -3.34 8.98 -3 10 C-1.35 9.67 0.3 9.34 2 9 C1.67 7.68 1.34 6.36 1 5 C-1.32357511 4.81509993 -1.32357511 4.81509993 -4 7 Z " fill="#FFFFFF" transform="translate(750,402)"/>
<path d="M0 0 C1.65 0 3.3 0 5 0 C5 6.27 5 12.54 5 19 C8.3 19 11.6 19 15 19 C15 19.99 15 20.98 15 22 C10.38 22 5.76 22 1 22 C0.67 14.74 0.34 7.48 0 0 Z " fill="#FFFFFF" transform="translate(528,791)"/>
<path d="M0 0 C-6.85936152 12.84987058 -6.85936152 12.84987058 -10 17 C-10.66 17 -11.32 17 -12 17 C-11.51171875 14.02148438 -11.51171875 14.02148438 -11.0234375 11.04296875 C-10.80422152 8.68244176 -10.80422152 8.68244176 -13 6 C-16.58357241 5.74984127 -16.58357241 5.74984127 -20 6 C-20 5.01 -20 4.02 -20 3 C-17.60743751 2.29878357 -15.21209511 1.61385099 -12.8125 0.9375 C-12.13896484 0.73833984 -11.46542969 0.53917969 -10.77148438 0.33398438 C-6.82583684 -0.76309811 -3.94448706 -1.21781251 0 0 Z M-10 3 C-9.67 4.32 -9.34 5.64 -9 7 C-8.34 7 -7.68 7 -7 7 C-6.34 5.35 -5.68 3.7 -5 2 C-6.72082924 2 -8.34228586 2.5722028 -10 3 Z " fill="#FFFFFF" transform="translate(738,382)"/>
<path d="M0 0 C0 6.93 0 13.86 0 21 C-0.99 20.67 -1.98 20.34 -3 20 C-3.33 18.02 -3.66 16.04 -4 14 C-5.98 13.34 -7.96 12.68 -10 12 C-10.99 12.99 -11.98 13.98 -13 15 C-13.99 14.67 -14.98 14.34 -16 14 C-13.90899061 11.6545763 -11.80014996 9.32593555 -9.6875 7 C-9.09259766 6.33226562 -8.49769531 5.66453125 -7.88476562 4.9765625 C-7.01948242 4.02910156 -7.01948242 4.02910156 -6.13671875 3.0625 C-5.60780029 2.47597656 -5.07888184 1.88945312 -4.53393555 1.28515625 C-3 0 -3 0 0 0 Z M-5.5625 6.375 C-7.22085796 7.88807063 -7.22085796 7.88807063 -7 10 C-5.68 10.33 -4.36 10.66 -3 11 C-3 9.02 -3 7.04 -3 5 C-4.22177328 4.88989535 -4.22177328 4.88989535 -5.5625 6.375 Z " fill="#FFFFFF" transform="translate(631,298)"/>
<path d="M0 0 C1.98 0 3.96 0 6 0 C6 6.27 6 12.54 6 19 C8.97 19 11.94 19 15 19 C15 19.99 15 20.98 15 22 C10.71 22 6.42 22 2 22 C1.93941406 20.57945312 1.87882812 19.15890625 1.81640625 17.6953125 C1.73200709 15.83853091 1.64735877 13.98176064 1.5625 12.125 C1.52318359 11.18785156 1.48386719 10.25070312 1.44335938 9.28515625 C1.40146484 8.38925781 1.35957031 7.49335937 1.31640625 6.5703125 C1.26141968 5.32918701 1.26141968 5.32918701 1.20532227 4.06298828 C1.11761673 1.93820571 1.11761673 1.93820571 0 0 Z " fill="#FFFFFF" transform="translate(497,791)"/>
<path d="M0 0 C3 0.25 3 0.25 5 2.25 C5.125 4.75 5.125 4.75 5 7.25 C4.90731397 9.34189609 4.90731397 9.34189609 5.6875 11.625 C6 14.25 6 14.25 4.9375 16.5625 C3 18.25 3 18.25 -0.0625 18.625 C-3 18.25 -3 18.25 -5 16.25 C-5.125 13.3125 -5.125 13.3125 -5 10.25 C-5 8.39536523 -5.03463746 6.53993212 -5.125 4.6875 C-4.92844142 0.85460777 -3.7028441 0.30857034 0 0 Z M-1 2.25 C-1.33 3.9 -1.66 5.55 -2 7.25 C-0.68 7.25 0.64 7.25 2 7.25 C2.33 6.26 2.66 5.27 3 4.25 C2.67 3.59 2.34 2.93 2 2.25 C1.01 2.25 0.02 2.25 -1 2.25 Z M-2 10.25 C-2.33 11.57 -2.66 12.89 -3 14.25 C-1.02 15.24 -1.02 15.24 1 16.25 C1.66 15.59 2.32 14.93 3 14.25 C2.6814823 12.14179203 2.6814823 12.14179203 2 10.25 C0.68 10.25 -0.64 10.25 -2 10.25 Z " fill="#FFFFFF" transform="translate(550,642.75)"/>
<path d="M0 0 C3.73872495 1.69656426 5.6288741 3.61267729 8 7 C8 7.66 8 8.32 8 9 C5.50638429 7.79618552 3.31856917 6.54571278 1 5 C0.34 6.32 -0.32 7.64 -1 9 C-0.01 9.99 0.98 10.98 2 12 C1.67 12.99 1.34 13.98 1 15 C-0.98 13.68 -2.96 12.36 -5 11 C-5.66 12.32 -6.32 13.64 -7 15 C-6.2575 15.6496875 -6.2575 15.6496875 -5.5 16.3125 C-4 18 -4 18 -4 21 C-7.7952131 19.50902342 -9.61042731 17.24299151 -12 14 C-8 9.33333333 -4 4.66666667 0 0 Z " fill="#FFFFFF" transform="translate(713,354)"/>
<path d="M0 0 C3.59186919 0.8979673 4.61696558 1.22007074 7.234375 3.43359375 C7.80800781 3.91763672 8.38164062 4.40167969 8.97265625 4.90039062 C9.55917969 5.40763672 10.14570313 5.91488281 10.75 6.4375 C11.35199219 6.94087891 11.95398438 7.44425781 12.57421875 7.96289062 C14.09287077 9.25942687 15.55188507 10.62512788 17 12 C17 12.66 17 13.32 17 14 C16.443125 13.855625 15.88625 13.71125 15.3125 13.5625 C14.549375 13.376875 13.78625 13.19125 13 13 C12.154375 12.773125 11.30875 12.54625 10.4375 12.3125 C7.74474036 11.69639239 7.74474036 11.69639239 5 14 C4.7497843 17.08365871 4.7497843 17.08365871 5 20 C4.01 20.33 3.02 20.66 2 21 C1.34 14.07 0.68 7.14 0 0 Z M3 5 C3.33 6.98 3.66 8.96 4 11 C5.32 10.34 6.64 9.68 8 9 C6.68799596 7.64567325 5.35368596 6.31266518 4 5 C3.67 5 3.34 5 3 5 Z " fill="#FFFFFF" transform="translate(426,308)"/>
<path d="M0 0 C0.99 0.33 1.98 0.66 3 1 C2.67 3.31 2.34 5.62 2 8 C3.98 8 5.96 8 8 8 C8 6.02 8 4.04 8 2 C8.99 1.67 9.98 1.34 11 1 C10.67 3.64 10.34 6.28 10 9 C11.98 8.67 13.96 8.34 16 8 C16.33 6.02 16.66 4.04 17 2 C17.66 2 18.32 2 19 2 C19 5.3 19 8.6 19 12 C12.4 11.67 5.8 11.34 -1 11 C-0.67 7.37 -0.34 3.74 0 0 Z " fill="#FFFFFF" transform="translate(296,499)"/>
<path d="M0 0 C0 2 0 2 -2.5 4.625 C-3.325 5.40875 -4.15 6.1925 -5 7 C-4.21625 6.95875 -3.4325 6.9175 -2.625 6.875 C0 7 0 7 2 9 C2.333728 12.13704316 2.52849028 14.16554166 0.8125 16.875 C-1.68036381 18.42229478 -3.11967335 18.50405716 -6 18 C-8.68579303 15.68466118 -8.9805093 14.15035683 -9.4375 10.625 C-8.92602348 6.38705169 -7.66410812 4.29095709 -5 1 C-3 0 -3 0 0 0 Z M-5 10 C-5.33 11.32 -5.66 12.64 -6 14 C-4.515 14.99 -4.515 14.99 -3 16 C-2.34 15.67 -1.68 15.34 -1 15 C-1 13.35 -1 11.7 -1 10 C-2.32 10 -3.64 10 -5 10 Z " fill="#FFFFFF" transform="translate(579,643)"/>
<path d="M0 0 C3.06997072 -0.39191116 5.11365285 -0.47271848 7.875 1 C9.68483001 4.21747557 9.50608986 7.45043826 9 11 C7.55914733 14.48838014 6.71251182 15.65202911 3.3125 17.3125 C2.549375 17.539375 1.78625 17.76625 1 18 C1 15 1 15 3 12.8125 C3.99 11.9153125 3.99 11.9153125 5 11 C3.02 10.34 1.04 9.68 -1 9 C-1.625 6.1875 -1.625 6.1875 -2 3 C-1.34 2.01 -0.68 1.02 0 0 Z M2 2 C1.67 3.65 1.34 5.3 1 7 C2.32 7.33 3.64 7.66 5 8 C5.33 6.35 5.66 4.7 6 3 C4.68 2.67 3.36 2.34 2 2 Z " fill="#FFFFFF" transform="translate(521,643)"/>
<path d="M0 0 C2.80984451 1.14475147 4.15173582 2.17341237 6.1875 4.5 C9.86990097 7.7732453 13.22425987 8.30288761 18 9 C17.67 9.99 17.34 10.98 17 12 C16.38253906 11.88140625 15.76507813 11.7628125 15.12890625 11.640625 C8.28845837 10.59946094 4.00182688 11.62216024 -2 15 C-2 13.68 -2 12.36 -2 11 C-0.02 10.01 1.96 9.02 4 8 C3.01 6.8553125 3.01 6.8553125 2 5.6875 C0 3 0 3 0 0 Z " fill="#FFFFFF" transform="translate(301,468)"/>
<path d="M0 0 C0 0.99 0 1.98 0 3 C-1.65 3 -3.3 3 -5 3 C-4.855625 3.80824219 -4.71125 4.61648438 -4.5625 5.44921875 C-4.376875 6.51785156 -4.19125 7.58648437 -4 8.6875 C-3.814375 9.74324219 -3.62875 10.79898437 -3.4375 11.88671875 C-3.04931926 14.64904062 -2.91740024 17.21742043 -3 20 C-3.99 20 -4.98 20 -6 20 C-6.66 14.72 -7.32 9.44 -8 4 C-9.65 4 -11.3 4 -13 4 C-13 3.01 -13 2.02 -13 1 C-11.58366664 0.83052421 -10.16691467 0.66454493 -8.75 0.5 C-7.56664062 0.36078125 -7.56664062 0.36078125 -6.359375 0.21875 C-4 0 -4 0 0 0 Z " fill="#FFFFFF" transform="translate(515,282)"/>
<path d="M0 0 C-0.42023438 0.86882812 -0.84046875 1.73765625 -1.2734375 2.6328125 C-2.41499396 6.07278309 -2.41499396 6.07278309 -0.2265625 8.9921875 C0.63195312 9.94351562 1.49046875 10.89484375 2.375 11.875 C3.22835938 12.84179688 4.08171875 13.80859375 4.9609375 14.8046875 C5.63382812 15.52914063 6.30671875 16.25359375 7 17 C6.67 17.66 6.34 18.32 6 19 C2.612801 17.5611898 0.6405896 15.77880501 -1.75 13 C-2.36359375 12.29875 -2.9771875 11.5975 -3.609375 10.875 C-5 9 -5 9 -5 7 C-5.61875 7.495 -6.2375 7.99 -6.875 8.5 C-9 10 -9 10 -11 10 C-9.63088196 6.8510285 -8.1247864 4.9521513 -5.5 2.75 C-4.8915625 2.22921875 -4.283125 1.7084375 -3.65625 1.171875 C-2 0 -2 0 0 0 Z " fill="#FFFFFF" transform="translate(384,338)"/>
<path d="M0 0 C0.99 0.99 1.98 1.98 3 3 C2.33871094 3.75925781 1.67742188 4.51851563 0.99609375 5.30078125 C0.15175781 6.29464844 -0.69257812 7.28851563 -1.5625 8.3125 C-2.83287109 9.79169922 -2.83287109 9.79169922 -4.12890625 11.30078125 C-4.74636719 12.19152344 -5.36382813 13.08226562 -6 14 C-5.24849977 17.27773504 -5.24849977 17.27773504 -2 19 C-2.33 19.99 -2.66 20.98 -3 22 C-5.64 20.02 -8.28 18.04 -11 16 C-9.21852423 12.43704847 -7.44402044 9.92285607 -4.9375 6.875 C-2.19551253 3.61448977 -2.19551253 3.61448977 0 0 Z " fill="#FFFFFF" transform="translate(693,335)"/>
<path d="M0 0 C0.99 0.33 1.98 0.66 3 1 C2.42385534 4.74162909 1.37098904 7.44298421 -0.5625 10.6875 C-2.46315966 13.65221977 -2.46315966 13.65221977 -3 17 C-0.53673288 18.6446674 -0.53673288 18.6446674 2 20 C1.67 20.66 1.34 21.32 1 22 C-2.0831351 20.80100302 -5.06279492 19.52299523 -8 18 C-6.65150163 13.64029169 -4.95092154 9.68658562 -2.875 5.625 C-2.33617187 4.56539063 -1.79734375 3.50578125 -1.2421875 2.4140625 C-0.83226562 1.61742187 -0.42234375 0.82078125 0 0 Z " fill="#FFFFFF" transform="translate(652,308)"/>
<path d="M0 0 C0 5.94 0 11.88 0 18 C-0.99 18 -1.98 18 -3 18 C-3 13.05 -3 8.1 -3 3 C-3.99 3.33 -4.98 3.66 -6 4 C-6 3.01 -6 2.02 -6 1 C-3 0 -3 0 0 0 Z " fill="#FFFFFF" transform="translate(504,643)"/>
<path d="M0 0 C1.32 0 2.64 0 4 0 C4 6.27 4 12.54 4 19 C3.01 19 2.02 19 1 19 C0.67 12.73 0.34 6.46 0 0 Z " fill="#FFFFFF" transform="translate(531,281)"/>
<path d="M0 0 C0 0.99 0 1.98 0 3 C-2.60311992 3.67099984 -5.20735398 4.33695338 -7.8125 5 C-8.55048828 5.19078125 -9.28847656 5.3815625 -10.04882812 5.578125 C-13.10535341 6.35262914 -15.83373478 7 -19 7 C-19 6.01 -19 5.02 -19 4 C-16.21079611 3.1369594 -13.41913928 2.28427693 -10.625 1.4375 C-9.8309375 1.19064453 -9.036875 0.94378906 -8.21875 0.68945312 C-7.45820312 0.46064453 -6.69765625 0.23183594 -5.9140625 -0.00390625 C-5.2123291 -0.21861572 -4.5105957 -0.4333252 -3.78759766 -0.65454102 C-2 -1 -2 -1 0 0 Z " fill="#FFFFFF" transform="translate(777,464)"/>
<path d="M0 0 C0.99 0 1.98 0 3 0 C3.67099984 2.60311992 4.33695338 5.20735398 5 7.8125 C5.19078125 8.55048828 5.3815625 9.28847656 5.578125 10.04882812 C6.35262914 13.10535341 7 15.83373478 7 19 C6.01 19 5.02 19 4 19 C2.35 13.06 0.7 7.12 -1 1 C-0.67 0.67 -0.34 0.34 0 0 Z " fill="#FFFFFF" transform="translate(482,287)"/>
<path d="" fill="#FFFFFF" transform="translate(0,0)"/>
</svg>
