<?xml version="1.0" encoding="utf-8"?>
<!-- Generator: Adobe Illustrator 26.0.3, SVG Export Plug-In . SVG Version: 6.00 Build 0)  -->
<svg version="1.1" xmlns="http://www.w3.org/2000/svg" xmlns:xlink="http://www.w3.org/1999/xlink" x="0px" y="0px"
	 viewBox="0 0 500 500" style="enable-background:new 0 0 500 500;" xml:space="preserve">
<style type="text/css">
	.st0{display:none;}
	.st1{display:inline;}
	.st2{fill:#0065B0;}
	.st3{fill:#F3832F;}
	.st4{fill:#F89940;}
</style>
<g id="Layer_1" class="st0">
	<g id="Group_358" transform="translate(444.209 6451.445)" class="st1">
		<g id="Group_183" transform="translate(39.092)">
			<g>
				<g id="Group_182">
					<path id="Path_792" class="st2" d="M-233.3-6038.07c-90.23,0-163.37-73.14-163.37-163.37s73.14-163.37,163.37-163.37
						s163.37,73.14,163.37,163.37l0,0C-70.02-6111.25-143.11-6038.16-233.3-6038.07 M-233.3-6401.44c-110.46,0-200,89.54-200,200
						s89.54,200,200,200s200-89.54,200-200l0,0C-33.39-6311.86-122.88-6401.35-233.3-6401.44"/>
					<path id="Path_793" class="st2" d="M-299.93-6212.97c-5.47-2.45-11.13-4.47-16.91-6.03c-6.36-1.49-12.85-2.29-19.38-2.4h-28.09
						c-4.82,0-8.73,3.91-8.73,8.73c0,4.82,3.91,8.73,8.73,8.73h29.75c15.32,0,32.81,5.81,49.02,14.27
						c9.55,4.98,27.18,15.76,27.18,15.76C-268.26-6190.59-282.67-6204.13-299.93-6212.97L-299.93-6212.97z"/>
					<path id="Path_794" class="st2" d="M-233.32-6099.19c-19.23,0-37.91-9.24-55.99-18.19c-17.14-8.5-33.36-16.53-48.76-16.53
						h-26.25c-4.82,0-8.73-3.91-8.73-8.73l0,0c0.01-4.81,3.92-8.7,8.73-8.7h26.24c19.49,0,38.31,9.31,56.51,18.33
						c17.02,8.41,33.08,16.38,48.24,16.38c15.06,0,30.94-7.91,47.75-16.27c18.23-9.08,37.05-18.43,56.84-18.43h26.38
						c4.82,0,8.73,3.9,8.73,8.72c0,4.82-3.9,8.73-8.72,8.73c0,0-0.01,0-0.01,0h-26.35c-15.71,0-31.93,8.05-49.07,16.59
						C-195.66-6108.4-214.17-6099.19-233.32-6099.19z"/>
					<path id="Path_795" class="st2" d="M-233.32-6133.91c-19.23,0-37.91-9.24-55.99-18.21c-17.14-8.5-33.36-16.53-48.76-16.53
						h-26.24c-4.82,0-8.73-3.9-8.73-8.72c0-4.82,3.9-8.73,8.72-8.73c0,0,0.01,0,0.01,0h26.24c19.49,0,38.31,9.31,56.51,18.33
						c17.02,8.45,33.08,16.38,48.24,16.38c15.06,0,30.94-7.91,47.75-16.29c18.21-9.07,37.03-18.43,56.82-18.43h26.38
						c4.82,0,8.72,3.9,8.73,8.72l0,0c0.01,4.82-3.9,8.73-8.72,8.74l0,0h-26.35c-15.73,0-31.93,8.06-49.07,16.6
						C-195.66-6143.11-214.17-6133.91-233.32-6133.91z"/>
					<path id="Path_796" class="st2" d="M-208.24-6173.92c0,0,17.63-10.79,27.18-15.77c16.22-8.45,33.72-14.27,49.02-14.27h29.75
						c4.82,0,8.73-3.91,8.73-8.73c0-4.82-3.91-8.73-8.73-8.73h-28.08c-6.53,0.09-13.04,0.9-19.4,2.4
						c-5.78,1.56-11.43,3.58-16.89,6.03C-183.92-6204.13-198.33-6190.59-208.24-6173.92L-208.24-6173.92z"/>
					<path id="Path_797" class="st3" d="M-196.5-6303.7c-16.55,0.03-31.27,10.51-36.73,26.12h-0.15
						c-7.03-20.32-29.2-31.1-49.52-24.07c-20.32,7.03-31.1,29.2-24.07,49.52c2.09,6.03,5.63,11.46,10.31,15.81h-0.05l63.4,62.41
						l62.23-61.37c16.29-14.04,18.11-38.62,4.08-54.91C-174.39-6298.77-185.16-6303.7-196.5-6303.7z"/>
				</g>
			</g>
		</g>
	</g>
</g>
<g id="Layer_2" class="st0">
	<g id="Group_359_00000020377294215763398080000008085833385834922428_" transform="translate(1341.445 6451.445)" class="st1">
		<g id="Group_189_00000144329500261313653580000000887041997727970176_" transform="translate(39.092)">
			<g>
				<g id="Group_188_00000038371422342752853620000015894930830680116401_" transform="translate(0)">
					<path id="Path_813_00000114071640213151739500000006000343475947230090_" class="st2" d="M-1130.54-6038.07
						c-90.23,0-163.37-73.14-163.37-163.37s73.14-163.37,163.37-163.37c90.23,0,163.37,73.14,163.37,163.37l0,0
						C-967.25-6111.25-1040.34-6038.16-1130.54-6038.07 M-1130.54-6401.44c-110.46,0-200,89.54-200,200s89.54,200,200,200
						c110.46,0,200-89.54,200-200l0,0C-930.63-6311.86-1020.12-6401.35-1130.54-6401.44"/>
					<path id="Path_814_00000140007831037686444200000002683513671150146743_" class="st3" d="M-1139.27-6171.7l85.21-68.9
						c0.51-0.45,0.79-1.1,0.77-1.78v-15.07l-82.41,66.61c-2.16,1.57-4.73,2.46-7.39,2.57c-2.16-0.08-4.26-0.7-6.12-1.79
						l-63.28-38.02v16.08c0,1.02,0.25,1.78,1.02,2.04l64.56,38.74C-1144.53-6169.7-1141.45-6169.9-1139.27-6171.7"/>
					<path id="Path_815_00000048494167300757665150000001837273982855938226_" class="st3" d="M-1090.3-6146.92l-41.59,42.87
						c-2.23,2.25-5.25,3.53-8.42,3.57c-1.67,0.03-3.32-0.31-4.84-1.01l-67.36-30.12l1.78,15.82c0.22,0.8,0.78,1.45,1.54,1.78
						l68.39,30.62c2.63,1.05,5.63,0.45,7.65-1.54l76.29-78.82l0,0c0.41-0.41,0.68-0.95,0.76-1.52l-1.01-8.42L-1090.3-6146.92z"/>
					<path id="Path_816_00000033354666004035711270000015718245599057047226_" class="st3" d="M-1130.35-6143.36
						c-2.08,1.7-4.71,2.61-7.4,2.55c-2.16-0.08-4.26-0.7-6.12-1.79l-63.3-38.01v16.08c0,1.03,0.25,1.78,1.01,2.04l64.58,38.77
						c2.4,1.5,5.48,1.3,7.66-0.51l85.21-68.89c0.5-0.45,0.78-1.11,0.77-1.78h0.26v-15.06L-1130.35-6143.36z"/>
					<path id="Path_817_00000111911026822375300800000012545139600830148268_" class="st2" d="M-1044.12-6226.28L-1044.12-6226.28
						l-7.39-4.35l3.31-2.81c2.77-2.24,4.36-5.62,4.34-9.18v-21.17c-0.05-4.06-2.16-7.81-5.61-9.95l-67.11-40.32
						c-4.25-2.63-9.71-2.22-13.52,1.01l-87.78,70.69c-2.77,2.24-4.36,5.62-4.33,9.18v21.17c0.1,4.11,2.2,7.92,5.61,10.21l7.39,4.34
						l-3.31,2.55c-2.77,2.24-4.36,5.62-4.33,9.18v21.18c0.1,4.18,2.31,8.02,5.88,10.21l-8.42,8.93c-2.57,2.53-3.79,6.13-3.31,9.7
						l2.55,20.94c0.45,4.09,3.09,7.6,6.89,9.18l68.63,30.62c2.07,1.01,4.34,1.54,6.64,1.53c4.4-0.02,8.62-1.75,11.75-4.84
						l76.28-78.84c2.46-2.6,3.67-6.14,3.31-9.7l-1.79-14.29l5.88-4.6c2.77-2.24,4.36-5.62,4.33-9.18v-21.17
						c-0.14-4.17-2.34-8-5.88-10.21 M-1137.76-6279.36L-1137.76-6279.36l12.25-9.7c1.59-1.35,3.9-1.46,5.61-0.26l35.22,21.18
						c2.35,1.34,3.16,4.33,1.83,6.67c-0.33,0.58-0.78,1.09-1.32,1.49l-12.25,9.7c-1.59,1.31-3.81,1.51-5.61,0.51l-35.21-21.43
						c-2.36-1.58-3-4.77-1.43-7.13C-1138.41-6278.71-1138.1-6279.05-1137.76-6279.36 M-1211.49-6209.94
						c-0.77-0.26-1.01-1.01-1.01-2.04v-16.1l63.28,38.02c1.86,1.09,3.96,1.7,6.12,1.79c2.66-0.11,5.23-0.99,7.4-2.55l82.42-66.6
						v15.06c0.02,0.68-0.26,1.33-0.77,1.78l-85.21,68.89c-2.17,1.8-5.26,2.01-7.65,0.51L-1211.49-6209.94z M-1056.87-6163.75
						L-1056.87-6163.75l-76.28,78.82c-2.02,1.99-5.02,2.59-7.65,1.54l-68.39-30.62c-0.76-0.33-1.32-0.99-1.54-1.79l-1.78-15.82
						l67.36,30.12c1.52,0.7,3.17,1.05,4.84,1.01c3.17-0.03,6.19-1.31,8.42-3.57l41.59-42.87l33.18-26.79l1.01,8.42
						c-0.08,0.58-0.35,1.11-0.76,1.52 M-1047.94-6194.9c0.02,0.68-0.26,1.33-0.76,1.78l-85.23,68.89c-2.17,1.81-5.26,2.01-7.65,0.51
						l-64.56-38.77c-0.77-0.26-1.01-1.02-1.01-2.05v-16.08l63.28,38.02c1.86,1.09,3.97,1.7,6.12,1.78c2.69,0.06,5.31-0.85,7.39-2.55
						l82.67-66.61v15.06L-1047.94-6194.9z"/>
					<path id="Path_818_00000141444861510335629650000008203983568526061191_" class="st3" d="M-1137.25-6271.2l35.22,21.43
						c1.8,1,4.02,0.79,5.61-0.51l12.25-9.7c2.16-1.62,2.6-4.68,0.99-6.84c-0.4-0.54-0.91-0.99-1.5-1.32l-35.21-21.18
						c-1.71-1.2-4.02-1.09-5.61,0.26l-12.25,9.7c-2.15,1.86-2.38,5.11-0.52,7.25C-1137.98-6271.76-1137.63-6271.45-1137.25-6271.2"
						/>
				</g>
			</g>
		</g>
	</g>
</g>
<g id="Layer_3" class="st0">
	<g id="Group_360" transform="translate(742.621 6451.445)" class="st1">
		<g id="Group_185" transform="translate(40.999)">
			<g>
				<g id="Group_184" transform="translate(0)">
					<path id="Path_798" class="st2" d="M-533.62-6038.07c-90.23,0-163.37-73.14-163.37-163.37s73.14-163.37,163.37-163.37
						s163.37,73.14,163.37,163.37l0,0C-370.33-6111.25-443.43-6038.16-533.62-6038.07 M-533.62-6401.44c-110.46,0-200,89.54-200,200
						s89.54,200,200,200s200-89.54,200-200l0,0C-333.71-6311.86-423.2-6401.35-533.62-6401.44"/>
					<path id="Path_799" class="st2" d="M-568.12-6343.14c12.13,1.32,20.89,12.23,19.57,24.36c-1.32,12.13-12.23,20.89-24.36,19.57
						c-12.12-1.32-20.88-12.22-19.57-24.34c1.32-12.13,12.22-20.9,24.35-19.58C-568.13-6343.14-568.13-6343.14-568.12-6343.14"/>
					<path id="Path_800" class="st2" d="M-626.88-6229.08l-10.77-5.51l2.76-5.51c0.93,1.77,2.38,3.21,4.14,4.14
						c1.44,0.78,3.06,1.16,4.69,1.1c0.28,0,0.83-0.28,1.1-0.28l0.83,0.55L-626.88-6229.08z M-517.53-6264.14l-19.88-3.04
						c-1.09-0.21-2.06-0.8-2.76-1.66c-13.53-19.88-18.5-24.57-22.37-25.68l-7.45,16.57l-1.93-11.04h0.28
						c0.96-0.02,1.77-0.72,1.93-1.66l0.28-2.76c-0.02-0.96-0.72-1.77-1.66-1.93l-3.6-0.28c-0.96,0.02-1.77,0.72-1.93,1.66
						l-0.28,2.76c0.02,0.96,0.72,1.77,1.66,1.93h0.28l-3.04,10.77l-5.24-17.4c-3.04,0.28-8.83,2.48-28.45,14.08
						c-5.17,3-9.38,7.41-12.14,12.71l-10.5,20.16c-0.56,0.91-0.85,1.97-0.83,3.04h-0.83c-1.61,0.52-2.98,1.6-3.86,3.04l-3.04,5.51
						l-5.51-3.04c-2.83-1.39-6.24-0.29-7.73,2.48l-11.6,22.09c-1.39,2.83-0.29,6.24,2.48,7.74l33.14,17.4
						c2.83,1.38,6.23,0.28,7.73-2.48l11.6-22.09c1.39-2.83,0.29-6.24-2.48-7.73l-5.51-3.04l3.04-5.51c1.07-2.13,0.86-4.68-0.55-6.61
						c0.61-0.63,1.09-1.38,1.38-2.2l10.5-19.88c1.03-2.09,2.67-3.82,4.69-4.97c0.67-0.48,1.42-0.85,2.2-1.1l-6.07,26.51
						c-1.19,5.23-0.2,10.71,2.76,15.19c2.73,4.15,7.01,7.03,11.88,8l-15.22,65.42c-1.36,6.1,2.47,12.14,8.57,13.52
						c0.8,0.23,1.64,0.33,2.48,0.28c5.31,0.03,9.91-3.65,11.05-8.83l15.19-66.27l13.26,2.48l7.46,33.42
						c1.13,5.18,5.74,8.87,11.04,8.83c0.84,0.05,1.67-0.05,2.48-0.28c6.09-1.38,9.92-7.43,8.57-13.52l-7.71-35.63
						c-1.65-7.75-7.91-13.67-15.74-14.91l-14.36-2.48l5.8-25.13c0.55,0.83,0.83,1.38,1.38,2.2c3.76,5.52,9.66,9.23,16.27,10.22
						l19.88,3.04c5.51,0.76,10.59-3.09,11.34-8.59C-508.47-6258.25-512.16-6263.26-517.53-6264.14L-517.53-6264.14z"/>
					<path id="Path_801" class="st3" d="M-576.62-6132.43h-36.18c-2.27,0.05-4.09,1.88-4.14,4.14v43.34
						c0.05,2.27,1.88,4.09,4.14,4.14h36.18c2.27-0.05,4.09-1.88,4.14-4.14v-43.62C-572.56-6130.78-574.41-6132.51-576.62-6132.43z"
						/>
					<path id="Path_802" class="st3" d="M-517.25-6162.26h-36.45c-2.27,0.05-4.09,1.88-4.14,4.14v73.18
						c0.05,2.27,1.88,4.09,4.14,4.14h36.45c2.26-0.05,4.09-1.87,4.14-4.14v-73.18c0.04-2.25-1.75-4.1-3.99-4.14
						C-517.15-6162.26-517.2-6162.26-517.25-6162.26"/>
					<path id="Path_803" class="st3" d="M-458.16-6192.08h-36.17c-2.27,0.05-4.09,1.88-4.14,4.14v103.02
						c0.05,2.27,1.88,4.09,4.14,4.14h36.18c2.26-0.05,4.09-1.88,4.14-4.14v-103c0.05-2.24-1.72-4.1-3.96-4.16
						C-458.03-6192.08-458.1-6192.08-458.16-6192.08z"/>
				</g>
			</g>
		</g>
	</g>
</g>
<g id="Layer_4">
	<g id="Group_361_00000013894212906517588040000010703579702379297717_" transform="translate(1042.033 6451.445)">
		<g id="Group_187_00000020386211932046968070000007276381307692191922_" transform="translate(37.185)">
			<g>
				<g id="Group_186_00000142146025417483176260000006610530543709698198_" transform="translate(0)">
					<path id="Path_804_00000175302664350912507310000015633141388777299864_" class="st2" d="M-829.22-6038.07
						c-90.23,0-163.37-73.14-163.37-163.37s73.14-163.37,163.37-163.37s163.37,73.14,163.37,163.37l0,0
						C-665.93-6111.25-739.03-6038.16-829.22-6038.07 M-829.22-6401.44c-110.46,0-200,89.54-200,200s89.54,200,200,200
						s200-89.54,200-200l0,0C-629.31-6311.86-718.8-6401.35-829.22-6401.44"/>
					<path id="Path_805_00000002352627931799259680000002968832626396864392_" class="st3" d="M-848.7-6159.73
						c-2.21-2.32-5.37-3.48-8.55-3.16c-3.06,0.29-5.98,1.43-8.42,3.31c-0.69,1.05-1.48,2.02-2.37,2.9l-19.34,19.21
						c-0.1,0.28-0.23,0.55-0.39,0.79c-1.29,2.34-1.97,4.96-1.98,7.63c-0.07,2.71,0.98,5.33,2.89,7.24c4.14,3.36,10.07,3.36,14.21,0
						l23.95-23.95c3.39-4.03,3.39-9.92,0-13.96"/>
					<path id="Path_806_00000045583784024314496490000010034541466519975337_" class="st3" d="M-874.08-6175.52
						c-1.66-1.7-3.94-2.65-6.32-2.63c-2.41-0.02-4.74,0.93-6.45,2.63l-23.95,23.95c-3.53,3.4-3.63,9.01-0.23,12.54
						c0.08,0.08,0.15,0.16,0.23,0.23c3.48,3.56,9.2,3.62,12.76,0.14c0.05-0.05,0.09-0.09,0.14-0.14l23.81-23.81
						c3.56-3.48,3.62-9.2,0.14-12.76C-873.99-6175.42-874.04-6175.47-874.08-6175.52"/>
					<path id="Path_807_00000117657189854800789480000015355579137705086606_" class="st3" d="M-905-6175.25
						c0.16-3.06-0.94-6.05-3.03-8.29c-3.77-3.92-10-4.05-13.93-0.28c-0.1,0.09-0.19,0.19-0.28,0.28l-13.42,13.42
						c-3.92,3.82-4.01,10.1-0.19,14.02c0.06,0.06,0.12,0.13,0.19,0.19c2.24,2.24,5.41,3.31,8.55,2.89c3.21-0.33,6.29-1.47,8.95-3.31
						c0.28-0.26,0.59-0.48,0.92-0.66l0.53-0.53l11.71-11.71L-905-6175.25z"/>
					<path id="Path_808_00000117665894944390492930000001585445039126256796_" class="st3" d="M-772.38-6232.87h-29.75
						c-7.41,7.99-15.23,15.59-23.42,22.77c-9.8,8.18-20.96,15.13-33.16,15.13c-5.61-0.03-11.09-1.68-15.79-4.74
						c-4.19-2.46-7.44-6.26-9.21-10.79c-0.48-1.4-0.18-2.96,0.79-4.08l46.73-54.63c-7.11-3.22-14.72-5.18-22.5-5.79
						c-5.61,0.2-11.12,1.54-16.19,3.95c-6.87,2.9-14.25,4.42-21.71,4.47c-9.81-0.11-19.44-2.64-28.04-7.36l-41.96,57.1l36.45,29.21
						l1.98-1.98c3.45-3.47,8.14-5.41,13.03-5.4c4.93-0.02,9.66,1.93,13.16,5.4c3.14,3.29,5,7.58,5.26,12.12l3.94-3.98
						c6.84-6.81,17.9-6.81,24.74,0c2.96,3.04,4.7,7.07,4.87,11.32c1.71-0.55,3.47-0.9,5.26-1.05c5.59-0.51,11.12,1.46,15.13,5.4
						c4.45,4.54,6.24,11.06,4.74,17.24c4.45,0.31,8.64,2.18,11.84,5.28c6.06,6.12,7.09,15.61,2.5,22.89l10.92,10.79
						c3.82,3.92,10.1,4.01,14.02,0.19c0.06-0.06,0.13-0.12,0.19-0.19c2.36-3.01,3.37-6.87,2.77-10.65l-15.79-17.11
						c-1.58-1.69-1.48-4.35,0.21-5.92s4.35-1.48,5.92,0.21c0.02,0.02,0.03,0.03,0.05,0.05l19.74,21.3
						c4.13,3.31,10.02,3.25,14.08-0.13c1.95-1.9,3.04-4.52,3.03-7.24c0-2.75-0.68-5.47-1.98-7.89c-0.1-0.17-0.19-0.35-0.26-0.52
						l-18.15-19.61c-1.59-1.71-1.5-4.39,0.2-5.99c0.81-0.77,1.9-1.19,3.02-1.14c1.13,0.03,2.19,0.51,2.96,1.33l22.37,24.34
						c3.44,3.49,9.06,3.53,12.55,0.08c0.07-0.07,0.14-0.14,0.21-0.21c3.53-3.66,3.41-9.49-0.25-13.02c0,0-0.01-0.01-0.01-0.01
						l-21.18-23.68c-1.55-1.74-1.4-4.4,0.33-5.95c0.61-0.54,1.36-0.9,2.17-1.02c1.44-0.21,2.88,0.34,3.82,1.44l21.18,23.55
						c0.42,0.5,0.82,1.03,1.18,1.58c0.24,0.15,0.46,0.33,0.66,0.52c2.48,1.71,5.41,2.67,8.42,2.76c3.21,0.13,6.32-1.12,8.55-3.42
						c4-4,3.62-9.69-0.26-14.61L-772.38-6232.87z"/>
					<path id="Path_809_00000027583864750920616400000015920365532859739264_" class="st3" d="M-683.43-6212.75l-38.16,30.52
						l5.14,6.58c6.51,7.4,6.39,18.52-0.26,25.79c-3.92,3.85-9.24,5.94-14.74,5.78c-1.78-0.05-3.55-0.31-5.26-0.79
						c0.02,4.55-1.78,8.91-5,12.12c-4.83,4.82-12.01,6.41-18.42,4.08c-0.16,4.8-2.12,9.36-5.51,12.76
						c-5.84,5.75-14.75,7.03-21.97,3.16c-1.99,9.92-11.64,16.35-21.56,14.36c-3.61-0.72-6.92-2.52-9.5-5.15l-10.53-10.53
						l-10.53,10.53c-7.19,7.23-18.88,7.27-26.11,0.08c-2.58-2.57-4.35-5.85-5.08-9.42c-8.84,4.92-20,1.75-24.92-7.1
						c-1.5-2.7-2.3-5.74-2.31-8.83c-9,3.46-19.11-1.04-22.57-10.04c-0.82-2.13-1.21-4.4-1.16-6.68c-1.51,0.4-3.05,0.66-4.61,0.79
						c-5.6,0.64-11.19-1.25-15.26-5.14c-7.2-7.24-7.2-18.94,0-26.18l5.66-5.66l-38.93-31.05c-1.77-1.4-2.13-3.96-0.79-5.79
						l46.31-63.17c0.62-0.89,1.57-1.5,2.63-1.71h0.4c0.97-0.11,1.95,0.12,2.76,0.66c8.08,5.18,17.51,7.88,27.11,7.76
						c6.43-0.01,12.79-1.36,18.68-3.95c6.04-2.76,12.58-4.27,19.22-4.45c10.17,0.52,20.12,3.17,29.21,7.76
						c9.11-5.03,19.34-7.7,29.75-7.76c6.64,0.18,13.17,1.7,19.21,4.47c5.89,2.59,12.25,3.93,18.68,3.95
						c9.6,0.11,19.02-2.59,27.1-7.76c1.9-1.28,4.46-0.81,5.79,1.05l46.31,63.17c1.34,1.83,0.99,4.38-0.79,5.79"/>
					<path id="Path_810_00000113345886421337956020000013162406230615347856_" class="st3" d="M-761.85-6266.57
						c-7.46-0.05-14.84-1.57-21.71-4.47c-5.07-2.41-10.58-3.75-16.19-3.95l0,0c-9.5,0.07-18.81,2.66-26.98,7.5l-47.62,55.92
						c1.04,1.91,2.53,3.53,4.34,4.74c3.37,2.18,7.3,3.37,11.31,3.42c8.86,0,18.73-5.67,27.9-13.29
						c9.16-7.62,17.34-16.94,23.82-23.42c0.81-0.79,1.9-1.21,3.02-1.18h33.68c1.29-0.01,2.5,0.57,3.31,1.58l40.12,50.93l35-28.02
						l-41.97-57.11C-742.41-6269.21-752.04-6266.68-761.85-6266.57"/>
					<path id="Path_811_00000098909452645326401440000002029353941637305997_" class="st3" d="M-840.4-6140.12L-840.4-6140.12
						c-0.75-0.04-1.5,0-2.24,0.13l-0.13,0.13l-19.87,19.87c-0.52,3.7,0.47,7.45,2.77,10.39c3.82,3.92,10.1,4.01,14.02,0.19
						c0.06-0.06,0.13-0.12,0.19-0.19l13.42-13.42c3.92-3.82,4.01-10.1,0.19-14.02c-0.06-0.06-0.12-0.13-0.19-0.19
						C-834.59-6139.04-837.44-6140.05-840.4-6140.12"/>
					<path id="Path_812_00000050661471312571633190000005811820029901098146_" class="st2" d="M-728.96-6281.7
						c-1.32-1.86-3.89-2.33-5.79-1.05c-8.08,5.18-17.51,7.88-27.11,7.76c-6.43-0.01-12.79-1.36-18.68-3.94
						c-6.04-2.77-12.57-4.29-19.21-4.48c-10.41,0.06-20.64,2.73-29.75,7.76c-9.09-4.59-19.03-7.23-29.2-7.76
						c-6.64,0.18-13.17,1.71-19.21,4.48c-5.89,2.59-12.25,3.93-18.69,3.94c-9.6,0.11-19.03-2.58-27.11-7.76
						c-0.82-0.53-1.8-0.76-2.77-0.66h-0.39c-1.06,0.21-2.01,0.82-2.63,1.71l-46.31,63.17c-1.34,1.83-0.99,4.38,0.79,5.79
						l38.93,31.05l-5.66,5.66c-7.2,7.24-7.2,18.94,0,26.18c4.07,3.89,9.67,5.78,15.26,5.14c1.56-0.12,3.1-0.39,4.61-0.79
						c-0.21,9.65,7.43,17.64,17.08,17.85c2.26,0.05,4.5-0.34,6.61-1.14c0.05,10.12,8.29,18.28,18.41,18.24
						c3.09-0.01,6.13-0.81,8.83-2.31c2.03,9.99,11.77,16.45,21.76,14.42c3.57-0.73,6.85-2.49,9.42-5.08l10.53-10.53l10.53,10.53
						c7.07,7.24,18.66,7.38,25.9,0.31c2.65-2.59,4.45-5.92,5.17-9.55c7.23,3.87,16.13,2.59,21.97-3.16
						c3.38-3.4,5.35-7.96,5.51-12.76c6.41,2.33,13.59,0.74,18.42-4.08c3.22-3.21,5.03-7.57,5-12.12c1.72,0.48,3.48,0.74,5.26,0.79
						c5.5,0.17,10.83-1.92,14.75-5.77c6.65-7.27,6.77-18.39,0.26-25.79l-5.14-6.58l38.16-30.52c1.77-1.4,2.13-3.96,0.79-5.79
						L-728.96-6281.7z M-917.24-6156.97c-0.33,0.18-0.64,0.4-0.92,0.66c-2.66,1.83-5.73,2.97-8.95,3.31
						c-3.15,0.42-6.31-0.65-8.55-2.9c-3.92-3.82-4.01-10.1-0.19-14.02c0.06-0.06,0.12-0.13,0.19-0.19l13.43-13.43
						c3.77-3.92,10-4.05,13.93-0.28c0.1,0.09,0.19,0.19,0.28,0.28c2.09,2.24,3.18,5.23,3.03,8.29v6.06l-11.73,11.71L-917.24-6156.97
						z M-897.9-6138.81c-3.48,3.56-9.18,3.63-12.74,0.15c-0.05-0.05-0.1-0.1-0.15-0.15c-3.52-3.39-3.63-9-0.24-12.52
						c0.08-0.08,0.16-0.16,0.24-0.24l23.95-23.95c1.71-1.7,4.03-2.65,6.45-2.63c2.38-0.02,4.66,0.93,6.32,2.63
						c3.56,3.48,3.63,9.18,0.15,12.74c-0.05,0.05-0.1,0.1-0.15,0.15L-897.9-6138.81z M-872.65-6121.83
						c-4.14,3.36-10.07,3.36-14.21,0c-1.92-1.91-2.97-4.53-2.89-7.24c0.01-2.67,0.68-5.29,1.97-7.63c0.17-0.24,0.3-0.51,0.4-0.79
						l19.34-19.21c0.89-0.88,1.68-1.85,2.37-2.89c2.44-1.87,5.36-3.02,8.42-3.31c3.19-0.33,6.34,0.84,8.55,3.16
						c3.39,4.03,3.39,9.92,0,13.96L-872.65-6121.83z M-832.25-6123.02l-13.42,13.42c-3.82,3.92-10.1,4.01-14.02,0.19
						c-0.06-0.06-0.13-0.12-0.19-0.19c-2.29-2.95-3.28-6.7-2.76-10.39l19.87-19.87l0.13-0.13c0.74-0.13,1.49-0.17,2.24-0.13l0,0
						c2.96,0.07,5.82,1.09,8.16,2.89c3.92,3.82,4.01,10.1,0.19,14.02C-832.12-6123.14-832.18-6123.08-832.25-6123.02
						 M-722.77-6155.91c-2.24,2.3-5.34,3.54-8.55,3.42c-3.02-0.09-5.94-1.05-8.42-2.76c-0.2-0.2-0.42-0.37-0.66-0.53
						c-0.36-0.55-0.76-1.08-1.18-1.58l-21.18-23.55c-0.94-1.1-2.38-1.65-3.82-1.44c-2.3,0.35-3.88,2.51-3.53,4.81
						c0.12,0.81,0.48,1.56,1.02,2.17l21.18,23.69c3.67,3.52,3.79,9.35,0.27,13.02c0,0,0,0,0,0c-3.37,3.56-8.99,3.71-12.55,0.34
						c-0.07-0.07-0.14-0.14-0.21-0.21l-22.37-24.34c-0.77-0.82-1.83-1.3-2.96-1.33c-1.12-0.05-2.21,0.36-3.03,1.14
						c-1.7,1.6-1.78,4.27-0.2,5.99l18.16,19.61c0.08,0.18,0.16,0.35,0.26,0.52c1.3,2.43,1.98,5.14,1.98,7.89
						c0.02,2.72-1.08,5.34-3.03,7.24c-4.07,3.38-9.95,3.44-14.08,0.13l-19.73-21.3c-1.42-1.83-4.05-2.16-5.88-0.74
						c-1.83,1.42-2.16,4.05-0.74,5.88c0.13,0.17,0.28,0.33,0.43,0.48l15.79,17.11c0.6,3.78-0.4,7.64-2.76,10.65
						c-3.82,3.92-10.1,4.01-14.02,0.19c-0.06-0.06-0.13-0.12-0.19-0.19l-10.92-10.79c4.59-7.28,3.56-16.77-2.5-22.89
						c-3.2-3.09-7.4-4.96-11.84-5.26c1.5-6.18-0.29-12.69-4.74-17.24c-4.01-3.93-9.54-5.91-15.13-5.4c-1.79,0.15-3.55,0.5-5.26,1.05
						c-0.18-4.24-1.91-8.27-4.87-11.31c-6.84-6.81-17.9-6.81-24.74,0l-3.95,3.95c-0.26-4.54-2.13-8.83-5.26-12.12
						c-3.5-3.47-8.23-5.41-13.16-5.4c-4.89-0.01-9.58,1.93-13.03,5.4l-1.97,1.98l-36.45-29.21l41.97-57.09
						c8.59,4.73,18.22,7.26,28.03,7.37c7.46-0.05,14.84-1.58,21.71-4.48c5.07-2.4,10.58-3.74,16.18-3.94
						c7.78,0.6,15.39,2.56,22.5,5.77l-46.71,54.62c-0.97,1.12-1.27,2.68-0.79,4.08c1.77,4.53,5.01,8.33,9.2,10.79
						c4.7,3.06,10.18,4.71,15.79,4.74c12.2,0,23.36-6.96,33.16-15.13c8.19-7.18,16-14.78,23.4-22.76h29.75l49.34,62.36
						C-719.15-6165.6-718.78-6159.91-722.77-6155.91 M-726.84-6188.81l-40.14-50.92c-0.8-1-2.02-1.58-3.31-1.58h-33.68
						c-1.13-0.03-2.22,0.4-3.03,1.18c-6.48,6.48-14.69,15.79-23.81,23.42s-19.05,13.29-27.9,13.29c-4.02-0.05-7.94-1.24-11.32-3.42
						c-1.81-1.2-3.3-2.83-4.34-4.74l47.64-55.92c8.17-4.84,17.48-7.43,26.97-7.5l0,0c5.61,0.2,11.12,1.54,16.19,3.94
						c6.87,2.91,14.25,4.43,21.71,4.48c9.81-0.11,19.44-2.64,28.03-7.36l41.97,57.1L-726.84-6188.81z"/>
				</g>
			</g>
		</g>
	</g>
</g>
<g id="Layer_5" class="st0">
	<g id="Group_362" transform="translate(443.855 6744.445)" class="st1">
		<g id="Group_191" transform="translate(41.952)">
			<g>
				<g id="Group_190" transform="translate(0)">
					<path id="Path_819" class="st2" d="M-235.81-6331.6c-89.93,0-162.84-72.91-162.84-162.84s72.91-162.84,162.84-162.84
						s162.84,72.91,162.84,162.84l0,0C-73.05-6404.54-145.91-6331.69-235.81-6331.6 M-235.81-6693.8
						c-110.1,0-199.35,89.25-199.35,199.35s89.25,199.35,199.35,199.35s199.35-89.25,199.35-199.35l0,0
						C-36.55-6604.51-125.75-6693.7-235.81-6693.8"/>
					<path id="Path_820" class="st3" d="M-161.21-6510.52l-58.94,21.88c-12.65,4.11-26.27,4.11-38.92,0l-58.94-21.88v51.36
						c0,20.18,23.63,41.7,78.41,41.7s78.4-21.53,78.4-41.7C-161.21-6471.04-161.21-6493.79-161.21-6510.52z"/>
					<path id="Path_821" class="st2" d="M-318-6510.52l58.94,21.88c12.65,4.11,26.27,4.11,38.92,0l58.94-21.88
						c0,16.73,0,39.48,0,51.36c0,20.18-23.62,41.7-78.39,41.7s-78.41-21.53-78.41-41.7L-318-6510.52 M-318-6521.71
						c-6.17,0-11.18,5-11.19,11.17c0,0,0,0.01,0,0.01v51.36c0,26.33,27.7,52.89,89.59,52.89c27.15,0,49.84-5.18,65.63-14.96
						c15.22-9.43,23.95-23.26,23.95-37.93c0-11.89,0-34.63,0-51.36c-0.01-6.18-5.03-11.18-11.21-11.17c-1.33,0-2.64,0.24-3.88,0.7
						l-58.94,21.88c-10.13,3.18-20.99,3.18-31.12,0l-58.94-21.88c-1.24-0.47-2.56-0.72-3.9-0.73"/>
					<path id="Path_822" class="st3" d="M-137.08-6457.61v-73.28c6.59-3.24,6-7.89-1.94-10.85l-84.79-31.48
						c-10.28-3.21-21.3-3.21-31.59,0l-84.81,31.48c-8.69,3.23-8.69,8.52,0,11.73l84.81,31.48c10.28,3.24,21.31,3.24,31.59,0
						l74.57-27.68v68.58c-5.22,4.03-12.17,14.21-12.17,40.14c0,2.33,1.89,4.22,4.22,4.21l0,0h28.09c2.33,0,4.21-1.89,4.21-4.21
						C-124.91-6443.41-131.85-6453.6-137.08-6457.61z"/>
					<path id="Path_823" class="st2" d="M-239.6-6575.64c5.36-0.09,10.7,0.72,15.79,2.41l84.79,31.48
						c7.94,2.95,8.53,7.61,1.94,10.85v73.29c5.24,4.03,12.17,14.21,12.19,40.15c0,2.32-1.89,4.21-4.21,4.21h-28.09
						c-2.33,0-4.22-1.88-4.22-4.21l0,0c0-25.94,6.96-36.13,12.17-40.15v-68.59l-74.57,27.68c-10.28,3.23-21.31,3.23-31.59,0
						l-84.81-31.48c-8.69-3.21-8.69-8.51,0-11.71l84.81-31.48c5.09-1.69,10.43-2.5,15.8-2.41 M-239.6-6586.81
						c-6.68-0.1-13.34,0.95-19.67,3.1l-84.84,31.49c-12.47,4.61-13.83,12.99-13.83,16.37c0,3.38,1.35,11.72,13.82,16.35l84.81,31.48
						c12.8,4.17,26.58,4.17,39.38,0l59.48-22.08v47.74c-8.08,9.19-12.17,24.26-12.17,44.92c0.01,8.51,6.91,15.4,15.42,15.4h28.09
						c8.5-0.01,15.39-6.9,15.4-15.4c-0.02-20.67-4.12-35.74-12.19-44.92v-62.88c3.04-2.99,4.69-7.12,4.52-11.39
						c-0.2-3.99-2.26-11.33-13.74-15.6l-84.8-31.5c-6.34-2.15-13-3.2-19.69-3.1"/>
				</g>
			</g>
		</g>
	</g>
</g>
<g id="Layer_6" class="st0">
	<g id="Group_363_00000039821251915671151910000007746725304494827432_" transform="translate(751.082 6744.445)" class="st1">
		<g id="Group_193_00000098933069885248014170000014722780366960918676_" transform="translate(34.324)">
			<g>
				<g id="Group_192_00000016076328506525826330000017322293316271961985_" transform="translate(0)">
					<path id="Path_824_00000049938041570693785170000012667374789713732769_" class="st2" d="M-535.41-6331.6
						c-89.93,0-162.84-72.91-162.84-162.84s72.91-162.84,162.84-162.84s162.84,72.91,162.84,162.84l0,0
						C-372.65-6404.54-445.51-6331.69-535.41-6331.6 M-535.41-6693.8c-110.1,0-199.35,89.25-199.35,199.35
						s89.25,199.35,199.35,199.35s199.35-89.25,199.35-199.35l0,0C-336.15-6604.51-425.35-6693.7-535.41-6693.8"/>
					<path id="Path_825_00000155110645772654353720000002175845747510466749_" class="st3" d="M-477.41-6480.9l-7.91-8.54
						l-14.03,24.63c-2.89,5.06-9.34,6.81-14.39,3.91c-0.87-0.5-1.66-1.11-2.35-1.83l-12.21-12.66l-15.64,26.36
						c-1.87,3.25-5.33,5.25-9.07,5.27h-0.86c-4.07-0.28-7.61-2.89-9.09-6.69l0,0l-17.9-46.07l-9.92,14.4
						c-1.97,2.83-5.21,4.51-8.65,4.51h-18.75c0.58,0.66,1.13,1.32,1.74,1.93l81.03,76.47l81.15-76.38c0.6-0.64,1.13-1.3,1.71-1.93
						h-16.94C-472.5-6477.47-475.37-6478.7-477.41-6480.9"/>
					<path id="Path_826_00000173122612418747356800000012879988924981322166_" class="st3" d="M-527.98-6543.74
						c-4.1,3.99-10.62,3.99-14.72,0c-13.91-13.29-26.66-20.33-36.92-20.33c-28.54-0.1-51.77,22.96-51.86,51.5c0,0.15,0,0.29,0,0.44
						c0.01,4.6,0.63,9.17,1.83,13.61h24.72l18.07-26.36c3.33-4.78,9.9-5.95,14.68-2.62c1.7,1.19,3.02,2.85,3.78,4.78l17.4,44.47
						l11.66-19.61c2.97-5,9.43-6.64,14.43-3.67c0.81,0.48,1.55,1.07,2.2,1.74l12.05,12.48l14.31-25.05
						c2.89-5.06,9.33-6.81,14.39-3.92c0.92,0.53,1.76,1.19,2.48,1.97l14.59,15.66h23.7c1.21-4.44,1.84-9.03,1.86-13.64
						c0.05-13.77-5.4-26.99-15.15-36.71C-475.46-6569.97-509.05-6562.7-527.98-6543.74"/>
					<path id="Path_827_00000111158617517862195140000004914366670663496336_" class="st2" d="M-535.42-6565.49
						c-15.45-13.11-30.32-19.67-44.2-19.67c-40.34,0.06-72.98,32.81-72.92,73.15c0.03,19.27,7.68,37.75,21.27,51.41l0.21,0.2
						l88.39,83.36c4.06,3.83,10.41,3.83,14.48,0l88.42-83.35l0.21-0.22c28.41-28.56,28.41-74.71,0-103.27
						C-464.23-6588.66-505.52-6588.75-535.42-6565.49 M-454.28-6475.6l-81.14,76.38l-81.03-76.47c-0.6-0.6-1.16-1.26-1.74-1.92
						h18.74c3.45,0,6.68-1.68,8.65-4.51l9.92-14.4l17.91,46.06l0,0c1.48,3.8,5.02,6.41,9.09,6.69h0.86c3.75-0.02,7.2-2.03,9.07-5.28
						l15.64-26.36l12.21,12.66c4.05,4.19,10.74,4.31,14.93,0.25c0.71-0.69,1.33-1.48,1.82-2.34l14.02-24.63l7.91,8.54
						c2.03,2.2,4.91,3.43,7.91,3.38h16.94C-453.14-6476.89-453.66-6476.24-454.28-6475.6 M-441.18-6498.62h-23.7l-14.59-15.67
						c-3.97-4.26-10.65-4.49-14.91-0.52c-0.77,0.72-1.44,1.56-1.96,2.48l-14.31,25.05l-12.05-12.47c-4.04-4.19-10.7-4.31-14.89-0.28
						c-0.68,0.65-1.26,1.39-1.74,2.2l-11.66,19.59l-17.41-44.49c-2.14-5.42-8.27-8.07-13.69-5.93c-1.93,0.76-3.59,2.07-4.77,3.77
						l-18.07,26.36h-24.72c-1.2-4.44-1.82-9.01-1.83-13.61c-0.14-28.54,22.89-51.8,51.44-51.93c0.15,0,0.29,0,0.44,0
						c10.25,0,23.02,7.05,36.92,20.33c4.1,3.98,10.62,3.98,14.72,0c18.93-18.97,52.52-26.23,73.51-5.25
						c9.75,9.73,15.2,22.96,15.14,36.73C-439.35-6507.65-439.97-6503.06-441.18-6498.62"/>
				</g>
			</g>
		</g>
	</g>
</g>
<g id="Layer_7" class="st0">
	<g id="Group_364" transform="translate(1041.912 6744.445)" class="st1">
		<g id="Group_195" transform="translate(40.045)">
			<g>
				<g id="Group_194" transform="translate(0)">
					<path id="Path_828" class="st2" d="M-754.73-6586.13c0.53,11.95-8.72,22.06-20.67,22.6c-11.95,0.53-22.06-8.72-22.6-20.67
						c-0.53-11.95,8.72-22.06,20.67-22.6c11.94-0.54,22.06,8.71,22.6,20.65C-754.73-6586.14-754.73-6586.13-754.73-6586.13"/>
					<path id="Path_829" class="st2" d="M-831.96-6331.6c-89.93,0-162.84-72.91-162.84-162.84s72.91-162.84,162.84-162.84
						s162.84,72.91,162.84,162.84l0,0C-669.2-6404.54-742.06-6331.69-831.96-6331.6 M-831.96-6693.8
						c-110.1,0-199.35,89.25-199.35,199.35s89.25,199.35,199.35,199.35s199.35-89.25,199.35-199.35l0,0
						C-632.7-6604.51-721.9-6693.7-831.96-6693.8"/>
					<path id="Path_830" class="st2" d="M-720.01-6598.69c-4.59-2.52-10.34-1.13-13.28,3.2l-20.92,28.79
						c-8.19,12.17-24.7,15.4-36.88,7.2c-2.59-1.75-4.86-3.94-6.69-6.47l-21.4-29.53c-2.94-4.33-8.69-5.71-13.28-3.2
						c-4.73,2.76-6.33,8.84-3.57,13.57c0.19,0.32,0.4,0.64,0.62,0.94l21.65,30.02c3.53,4.82,7.96,8.91,13.04,12.05
						c2.14,1.43,3.43,3.83,3.44,6.4v43.81l-13.55,71.36c-1.09,4.86,0.98,9.89,5.18,12.56c1.76,1.13,3.81,1.73,5.91,1.72
						c5.42,0.07,10.1-3.77,11.07-9.1l12.56-65.95l12.3,65.95c0.98,5.33,5.66,9.18,11.07,9.1c2.09,0.01,4.14-0.59,5.9-1.72
						c4.19-2.68,6.26-7.7,5.17-12.55l-13.55-71.36v-44.04c-0.11-2.6,1.21-5.05,3.44-6.4c5.08-3.15,9.5-7.24,13.04-12.05l21.65-30.02
						c3.23-4.28,2.38-10.36-1.89-13.59C-719.29-6598.25-719.64-6598.48-720.01-6598.69z"/>
					<path id="Path_831" class="st3" d="M-847.97-6542.09c-2.29-2.92-6.51-3.44-9.43-1.15c-0.43,0.34-0.82,0.72-1.15,1.15
						l-25.1,32.48c-2.27,2.94-1.72,7.16,1.22,9.43c1.2,0.93,2.68,1.42,4.2,1.4h11.07v87.62c0.07,2.28,1.9,4.11,4.18,4.18h19.94
						c2.28-0.07,4.11-1.9,4.18-4.18v-87.62h11.07c3.71,0.05,6.76-2.91,6.81-6.62c0.02-1.52-0.47-3-1.4-4.2L-847.97-6542.09z"/>
					<path id="Path_832" class="st3" d="M-911.7-6499.53c-2.29-2.92-6.51-3.44-9.43-1.15c-0.43,0.34-0.82,0.72-1.15,1.15
						l-25.1,32.49c-2.26,2.94-1.72,7.16,1.22,9.42c1.2,0.93,2.68,1.42,4.19,1.4h11.07v45.28c0.07,2.28,1.9,4.11,4.18,4.18h19.94
						c2.28-0.07,4.11-1.9,4.18-4.18v-45.27h11.07c3.71,0.05,6.76-2.91,6.81-6.62c0.02-1.52-0.47-3-1.4-4.2L-911.7-6499.53z"/>
				</g>
			</g>
		</g>
	</g>
</g>
<g id="Layer_8" class="st0">
	<g id="Group_538_00000155104079282693911270000006892875404977528962_" transform="translate(1340.912 6744.445)" class="st1">
		<g id="Group_559_00000181055170067988952130000012379536274848616372_" transform="translate(40.178 -0.354)">
			<g>
				<g id="Group_558_00000129915684278155168620000014283162708812730773_">
					<path id="Path_1491_00000004528673706304325960000010227872006059813799_" class="st2" d="M-1131.09-6331.25
						c-89.93,0-162.84-72.91-162.84-162.84s72.91-162.84,162.84-162.84s162.84,72.91,162.84,162.84l0,0
						C-968.25-6404.16-1041.16-6331.25-1131.09-6331.25 M-1131.09-6693.44c-110.1,0-199.35,89.25-199.35,199.35
						s89.25,199.35,199.35,199.35s199.35-89.25,199.35-199.35l0,0C-931.74-6604.19-1020.99-6693.44-1131.09-6693.44"/>
					<path id="Path_1492_00000177460848554924289280000016166481015961645457_" class="st4" d="M-1028.85-6477.94
						c3.79-4.57,6.04-10.22,6.41-16.15c-0.37-5.92-2.62-11.58-6.41-16.14c-2.27-3.02-4.19-6.29-5.73-9.73
						c-0.36-3.74-0.31-7.51,0.15-11.24c0.98-5.86,0.09-11.89-2.56-17.21c-3.27-4.95-8.02-8.72-13.58-10.79
						c-3.48-1.48-6.8-3.32-9.88-5.51c-2.19-3.06-4.03-6.35-5.49-9.81c-2.06-5.58-5.84-10.36-10.79-13.66
						c-5.32-2.65-11.34-3.55-17.21-2.56c-3.73,0.46-7.5,0.51-11.24,0.15c-3.45-1.54-6.71-3.46-9.73-5.73
						c-4.57-3.79-10.22-6.04-16.15-6.41c-5.93,0.37-11.58,2.62-16.14,6.41c-3.02,2.27-6.29,4.19-9.73,5.73
						c-3.74,0.36-7.51,0.31-11.24-0.15c-5.86-0.98-11.89-0.09-17.21,2.56c-4.95,3.29-8.73,8.08-10.79,13.66
						c-1.47,3.46-3.32,6.75-5.51,9.81c-3.09,2.19-6.4,4.04-9.88,5.51c-5.56,2.06-10.31,5.84-13.58,10.79
						c-2.63,5.33-3.5,11.35-2.49,17.21c0.44,3.73,0.47,7.5,0.08,11.24c-1.54,3.45-3.46,6.71-5.73,9.73
						c-3.79,4.57-6.04,10.22-6.41,16.14c0.37,5.93,2.62,11.58,6.41,16.15c2.27,3.02,4.19,6.29,5.73,9.73
						c0.39,3.74,0.37,7.51-0.08,11.24c-1.01,5.85-0.14,11.88,2.49,17.21c3.27,4.94,8.02,8.72,13.58,10.79
						c3.48,1.47,6.8,3.31,9.88,5.49c2.19,3.06,4.04,6.35,5.51,9.81c2.06,5.58,5.84,10.36,10.79,13.66
						c5.33,2.63,11.35,3.5,17.21,2.49c3.73-0.45,7.5-0.47,11.24-0.07c3.45,1.54,6.71,3.46,9.73,5.73
						c4.57,3.79,10.22,6.04,16.14,6.41c5.93-0.37,11.58-2.62,16.15-6.41c3.02-2.27,6.29-4.19,9.73-5.73
						c3.74-0.4,7.51-0.37,11.24,0.07c5.85,1.01,11.88,0.14,17.21-2.49c4.95-3.3,8.73-8.08,10.79-13.66
						c1.47-3.46,3.31-6.75,5.49-9.81c3.09-2.18,6.4-4.02,9.88-5.49c5.56-2.07,10.31-5.84,13.58-10.79
						c2.65-5.32,3.55-11.34,2.56-17.21c-0.46-3.73-0.51-7.5-0.15-11.24C-1033.04-6471.66-1031.12-6474.92-1028.85-6477.94"/>
					<path id="Path_1493_00000041276894709355063020000013061742553455615130_" class="st2" d="M-1102.12-6477.19
						c6.67,0,12.08,5.41,12.08,12.08c0,6.67-5.41,12.08-12.08,12.08c-6.67,0-12.08-5.41-12.08-12.08l0,0
						c-0.07-6.61,5.24-12.02,11.85-12.08C-1102.27-6477.19-1102.2-6477.19-1102.12-6477.19 M-1102.12-6491.67
						c-14.67,0-26.56,11.89-26.56,26.56c0,14.67,11.89,26.56,26.56,26.56s26.56-11.89,26.56-26.56
						C-1075.62-6479.76-1087.47-6491.61-1102.12-6491.67 M-1160.06-6535.13c6.67,0,12.08,5.41,12.08,12.08
						c0,6.67-5.41,12.08-12.08,12.08c-6.67,0-12.08-5.41-12.08-12.08l0,0c-0.07-6.61,5.24-12.02,11.85-12.08
						C-1160.22-6535.13-1160.14-6535.13-1160.06-6535.13 M-1093.29-6540.05c-1.64,0.22-3.16,0.99-4.3,2.2l-77.26,77.25
						c-3.02,2.63-3.33,7.2-0.7,10.22s7.2,3.33,10.22,0.7c0.26-0.23,0.51-0.47,0.73-0.74l77.25-77.25c2.87-2.78,2.94-7.37,0.16-10.24
						C-1088.78-6539.53-1091.03-6540.33-1093.29-6540.05z M-1160.06-6549.62c-14.67,0-26.56,11.89-26.56,26.56
						c0,14.67,11.89,26.56,26.56,26.56c14.67,0,26.56-11.89,26.56-26.56C-1133.57-6537.7-1145.42-6549.56-1160.06-6549.62
						 M-1131.09-6588.25c2.91,0.75,5.63,2.08,8,3.92c4.2,3.41,8.98,6.04,14.11,7.77c5.27,1.06,10.69,1.16,15.99,0.3
						c3-0.4,6.06-0.19,8.98,0.6c2.14,2.13,3.83,4.67,4.98,7.47c1.93,5.04,4.74,9.69,8.3,13.74c4.05,3.56,8.7,6.37,13.73,8.3
						c2.8,1.14,5.34,2.84,7.47,4.98c0.8,2.92,1,5.98,0.6,8.98c-0.83,5.31-0.71,10.73,0.37,15.99c1.7,5.12,4.31,9.9,7.69,14.11
						c1.84,2.37,3.18,5.09,3.92,8c-0.75,2.92-2.08,5.67-3.92,8.05c-3.38,4.19-5.98,8.95-7.68,14.05c-1.08,5.29-1.2,10.73-0.37,16.07
						c0.4,2.98,0.2,6.01-0.6,8.9c-2.13,2.14-4.67,3.84-7.47,4.98c-5.04,1.96-9.69,4.79-13.73,8.37c-3.56,4.05-6.37,8.7-8.3,13.73
						c-1.14,2.78-2.83,5.3-4.98,7.4c-2.92,0.8-5.98,1.01-8.98,0.6c-5.31-0.83-10.73-0.71-15.99,0.37c-5.12,1.71-9.9,4.31-14.11,7.69
						c-2.37,1.84-5.09,3.18-8,3.92c-2.92-0.75-5.67-2.08-8.05-3.92c-4.19-3.38-8.95-5.98-14.06-7.68
						c-5.29-1.07-10.73-1.2-16.07-0.37c-2.98,0.4-6.01,0.2-8.9-0.6c-2.15-2.1-3.84-4.62-4.98-7.4c-1.96-5.04-4.79-9.69-8.38-13.73
						c-4.05-3.58-8.69-6.42-13.73-8.37c-2.78-1.14-5.3-2.83-7.4-4.98c-0.8-2.9-1-5.93-0.6-8.9c0.83-5.34,0.71-10.78-0.37-16.07
						c-1.7-5.1-4.31-9.85-7.69-14.03c-1.84-2.39-3.18-5.13-3.92-8.05c0.73-2.91,2.06-5.64,3.88-8.02c3.38-4.21,5.98-8.99,7.69-14.11
						c1.07-5.27,1.2-10.68,0.37-15.99c-0.4-3-0.2-6.06,0.6-8.98c2.1-2.15,4.62-3.84,7.4-4.98c5.04-1.93,9.69-4.74,13.73-8.3
						c3.58-4.05,6.42-8.7,8.38-13.74c1.14-2.8,2.84-5.34,4.98-7.47c2.9-0.8,5.93-1.01,8.9-0.6c5.33,0.86,10.78,0.76,16.07-0.3
						c5.11-1.73,9.86-4.36,14.04-7.77c2.39-1.84,5.13-3.18,8.05-3.92 M-1131.14-6602.74c-5.93,0.37-11.58,2.62-16.15,6.41
						c-3.02,2.27-6.28,4.19-9.73,5.73c-3.74,0.36-7.51,0.31-11.24-0.15c-5.86-0.98-11.89-0.09-17.21,2.56
						c-4.95,3.29-8.73,8.08-10.79,13.66c-1.47,3.46-3.32,6.75-5.51,9.81c-3.09,2.19-6.4,4.04-9.88,5.51
						c-5.56,2.06-10.31,5.84-13.58,10.79c-2.63,5.33-3.5,11.35-2.49,17.21c0.44,3.73,0.47,7.5,0.08,11.24
						c-1.54,3.45-3.47,6.71-5.74,9.73c-3.79,4.57-6.04,10.22-6.41,16.14c0.37,5.93,2.62,11.58,6.41,16.15
						c2.27,3.02,4.19,6.29,5.74,9.73c0.39,3.74,0.37,7.51-0.08,11.24c-1.01,5.85-0.14,11.88,2.49,17.21
						c3.27,4.94,8.03,8.72,13.58,10.79c3.48,1.47,6.8,3.31,9.88,5.49c2.19,3.06,4.04,6.35,5.51,9.81
						c2.06,5.58,5.84,10.36,10.79,13.66c5.33,2.63,11.35,3.5,17.21,2.49c3.73-0.45,7.5-0.47,11.24-0.07
						c3.45,1.54,6.71,3.46,9.73,5.73c4.57,3.79,10.22,6.04,16.15,6.41c5.93-0.37,11.58-2.62,16.15-6.41
						c3.02-2.27,6.28-4.19,9.73-5.73c3.74-0.4,7.51-0.37,11.24,0.07c5.85,1.01,11.88,0.14,17.21-2.49
						c4.95-3.3,8.73-8.08,10.79-13.66c1.47-3.46,3.32-6.75,5.51-9.81c3.09-2.18,6.4-4.02,9.88-5.49
						c5.56-2.07,10.31-5.84,13.58-10.79c2.65-5.32,3.54-11.34,2.56-17.21c-0.46-3.73-0.51-7.5-0.15-11.24
						c1.54-3.45,3.47-6.71,5.74-9.73c3.79-4.57,6.04-10.22,6.41-16.15c-0.37-5.92-2.62-11.58-6.41-16.14
						c-2.27-3.02-4.19-6.29-5.74-9.73c-0.36-3.74-0.3-7.51,0.15-11.24c0.98-5.86,0.08-11.88-2.56-17.21
						c-3.27-4.95-8.03-8.72-13.58-10.79c-3.48-1.48-6.8-3.32-9.88-5.51c-2.19-3.06-4.04-6.35-5.51-9.81
						c-2.06-5.58-5.84-10.36-10.79-13.66c-5.32-2.65-11.34-3.55-17.21-2.56c-3.73,0.46-7.5,0.51-11.24,0.15
						c-3.45-1.54-6.71-3.46-9.73-5.73C-1119.56-6600.12-1125.22-6602.37-1131.14-6602.74"/>
				</g>
			</g>
		</g>
	</g>
</g>
</svg>
