<?xml version="1.0" encoding="UTF-8"?>
<svg xmlns="http://www.w3.org/2000/svg" id="Layer_1" data-name="Layer 1" viewBox="0 0 24 24">
  <path d="M8.576,6.792h12.924c.828,0,1.5-.671,1.5-1.5s-.672-1.5-1.5-1.5H8.576c-.828,0-1.5,.671-1.5,1.5s.672,1.5,1.5,1.5Z"/>
  <path d="M21.5,10.5H8.576c-.828,0-1.5,.671-1.5,1.5s.672,1.5,1.5,1.5h12.924c.828,0,1.5-.671,1.5-1.5s-.672-1.5-1.5-1.5Z"/>
  <path d="M3.137,3.141c-1.357,0-2.137,.784-2.137,2.151s.779,2.152,2.137,2.152,2.137-.784,2.137-2.152-.779-2.151-2.137-2.151Z"/>
  <ellipse cx="3.137" cy="12" rx="2.137" ry="2.152"/>
  <path d="M3.137,16.556c-1.357,0-2.137,.784-2.137,2.152s.779,2.151,2.137,2.151,2.137-.784,2.137-2.151-.779-2.152-2.137-2.152Z"/>
  <path d="M21.5,17.208H8.576c-.828,0-1.5,.671-1.5,1.5s.672,1.5,1.5,1.5h12.924c.828,0,1.5-.671,1.5-1.5s-.672-1.5-1.5-1.5Z"/>
</svg>
